<mxfile host="app.diagrams.net" modified="2023-04-03T13:09:36.543Z" agent="Mozilla/5.0 (Windows NT 10.0; Win64; x64) AppleWebKit/537.36 (KHTML, like Gecko) Chrome/111.0.0.0 Safari/537.36" etag="TysboD_m5Sp06P0KXemd" version="21.1.4" type="github" pages="3">
  <diagram id="QWj5j5rqvdNmE8N8yoSe" name="KTEL Current Process">
    <mxGraphModel dx="1867" dy="870" grid="0" gridSize="10" guides="1" tooltips="1" connect="1" arrows="1" fold="1" page="1" pageScale="1" pageWidth="850" pageHeight="1100" math="0" shadow="0">
      <root>
        <mxCell id="0" />
        <mxCell id="1" parent="0" />
        <mxCell id="v0HhqF52RrTxlJ2Bcofn-1" value="" style="html=1;jettySize=18;whiteSpace=wrap;fontSize=13;strokeColor=#cc4e00;strokeOpacity=100;strokeWidth=2.3;rounded=1;arcSize=12;edgeStyle=orthogonalEdgeStyle;startArrow=none;endArrow=none;entryX=0.632;entryY=0.938;entryPerimeter=0;lucidId=myWKP1xHXcmx;" parent="1" target="v0HhqF52RrTxlJ2Bcofn-25" edge="1">
          <mxGeometry width="100" height="100" relative="1" as="geometry">
            <Array as="points">
              <mxPoint x="988" y="531" />
            </Array>
            <mxPoint x="915" y="531" as="sourcePoint" />
          </mxGeometry>
        </mxCell>
        <mxCell id="v0HhqF52RrTxlJ2Bcofn-2" value="" style="html=1;overflow=block;blockSpacing=1;whiteSpace=wrap;fontSize=13;spacing=0;strokeColor=#cc4e00;strokeOpacity=100;rounded=1;absoluteArcSize=1;arcSize=9;rotation=-270;strokeWidth=2.3;lucidId=myWK3gGjAY34;" parent="1" vertex="1">
          <mxGeometry x="642" y="478" width="68" height="2" as="geometry" />
        </mxCell>
        <mxCell id="v0HhqF52RrTxlJ2Bcofn-3" value="" style="html=1;jettySize=18;whiteSpace=wrap;fontSize=13;strokeColor=#cc4e00;strokeOpacity=100;strokeWidth=2.3;rounded=1;arcSize=12;edgeStyle=orthogonalEdgeStyle;startArrow=none;endArrow=none;lucidId=myWKBJVc2I4O;" parent="1" edge="1">
          <mxGeometry width="100" height="100" relative="1" as="geometry">
            <Array as="points">
              <mxPoint x="1260" y="365" />
              <mxPoint x="1260" y="400" />
            </Array>
            <mxPoint x="1191" y="365" as="sourcePoint" />
            <mxPoint x="1305" y="400" as="targetPoint" />
          </mxGeometry>
        </mxCell>
        <mxCell id="v0HhqF52RrTxlJ2Bcofn-4" value="" style="html=1;overflow=block;blockSpacing=1;whiteSpace=wrap;fontSize=13;spacing=0;strokeColor=#cc4e00;strokeOpacity=100;rounded=1;absoluteArcSize=1;arcSize=9;rotation=-328.9715870026036;strokeWidth=2.3;lucidId=myWKZ00BMTFW;" parent="1" vertex="1">
          <mxGeometry x="819" y="399" width="17" height="2" as="geometry" />
        </mxCell>
        <mxCell id="v0HhqF52RrTxlJ2Bcofn-5" value="" style="html=1;jettySize=18;whiteSpace=wrap;fontSize=13;strokeColor=#cc4e00;strokeOpacity=100;strokeWidth=2.3;rounded=1;arcSize=12;edgeStyle=orthogonalEdgeStyle;startArrow=none;endArrow=none;entryX=0.999;entryY=0.408;entryPerimeter=0;lucidId=myWKWjVzqkW9;" parent="1" target="v0HhqF52RrTxlJ2Bcofn-13" edge="1">
          <mxGeometry width="100" height="100" relative="1" as="geometry">
            <Array as="points">
              <mxPoint x="833" y="405" />
            </Array>
            <mxPoint x="747" y="405" as="sourcePoint" />
          </mxGeometry>
        </mxCell>
        <mxCell id="v0HhqF52RrTxlJ2Bcofn-6" value="" style="html=1;overflow=block;blockSpacing=1;whiteSpace=wrap;shape=image;fontSize=13;spacing=3.8;strokeColor=none;strokeOpacity=100;strokeWidth=0;image=https://images.lucid.app/images/2bd9658d-0d79-4cc4-ba22-f0105dff800c/content;imageAspect=0;lucidId=myWKD.uETU4V;" parent="1" vertex="1">
          <mxGeometry x="225" y="311" width="165" height="130" as="geometry" />
        </mxCell>
        <mxCell id="v0HhqF52RrTxlJ2Bcofn-7" value="User (Students)" style="html=1;overflow=block;blockSpacing=1;whiteSpace=wrap;fontSize=18.3;fontColor=#3a414a;fontStyle=1;spacing=3.8;strokeOpacity=0;fillOpacity=0;rounded=1;absoluteArcSize=1;arcSize=9;fillColor=#ffffff;strokeWidth=0.8;lucidId=myWKS0JmB5pt;" parent="1" vertex="1">
          <mxGeometry x="225" y="434" width="158" height="51" as="geometry" />
        </mxCell>
        <mxCell id="v0HhqF52RrTxlJ2Bcofn-8" value="Open Facebook Application" style="html=1;overflow=block;blockSpacing=1;whiteSpace=wrap;fontSize=13.3;fontColor=#3a414a;fontStyle=1;spacing=3.8;strokeOpacity=0;fillOpacity=0;rounded=1;absoluteArcSize=1;arcSize=9;fillColor=#ffffff;strokeWidth=0.8;lucidId=myWKGTIxabsB;" parent="1" vertex="1">
          <mxGeometry x="405" y="316" width="120" height="39" as="geometry" />
        </mxCell>
        <mxCell id="v0HhqF52RrTxlJ2Bcofn-9" value="" style="html=1;overflow=block;blockSpacing=1;whiteSpace=wrap;shape=image;fontSize=13;spacing=3.8;strokeColor=none;strokeOpacity=100;strokeWidth=0;image=https://images.lucid.app/images/c96c75c4-0dd8-4b45-ad46-53660116a7bb/content;imageAspect=0;lucidId=myWKiV9agjRD;" parent="1" vertex="1">
          <mxGeometry x="555" y="301" width="195" height="150" as="geometry" />
        </mxCell>
        <mxCell id="v0HhqF52RrTxlJ2Bcofn-10" value="" style="html=1;overflow=block;blockSpacing=1;whiteSpace=wrap;shape=image;fontSize=13;spacing=3.8;strokeColor=none;strokeOpacity=100;rotation=9.822244719577993;strokeWidth=0;image=https://images.lucid.app/images/e87304b1-a209-4a06-802d-6df0fce32df4/content;imageAspect=0;lucidId=myWKzgxPMv-2;" parent="1" vertex="1">
          <mxGeometry x="632" y="319" width="27" height="20" as="geometry" />
        </mxCell>
        <mxCell id="v0HhqF52RrTxlJ2Bcofn-11" value="Page" style="html=1;overflow=block;blockSpacing=1;whiteSpace=wrap;fontSize=15;fontColor=#cfe4ff;fontStyle=1;spacing=3.8;strokeOpacity=0;rounded=1;absoluteArcSize=1;arcSize=19.5;rotation=5.545068709570326;flipH=1;flipV=1;fillColor=#b4d7ff;gradientColor=#6db1ff;strokeWidth=0.8;lucidId=myWK6d-AsLKx;" parent="1" vertex="1">
          <mxGeometry x="661" y="323" width="60" height="25" as="geometry" />
        </mxCell>
        <mxCell id="v0HhqF52RrTxlJ2Bcofn-12" value="KTEL Language School &#xa;&amp; Tutorial Services" style="html=1;overflow=block;blockSpacing=1;whiteSpace=wrap;fontSize=9.3;fontColor=#dfe3e8;fontStyle=1;spacing=3.8;strokeOpacity=0;fillOpacity=0;rounded=1;absoluteArcSize=1;arcSize=9;rotation=9.045809913644753;fillColor=#ffffff;strokeWidth=0.8;lucidId=myWK1RcvScKI;" parent="1" vertex="1">
          <mxGeometry x="619" y="349" width="103" height="45" as="geometry" />
        </mxCell>
        <mxCell id="v0HhqF52RrTxlJ2Bcofn-13" value="" style="html=1;overflow=block;blockSpacing=1;whiteSpace=wrap;fontSize=13;spacing=0;strokeColor=#cc4e00;strokeOpacity=100;rounded=1;absoluteArcSize=1;arcSize=9;rotation=-37.08589013477915;strokeWidth=2.3;lucidId=myWKfS9Cz8.x;" parent="1" vertex="1">
          <mxGeometry x="819" y="408" width="16" height="2" as="geometry" />
        </mxCell>
        <mxCell id="v0HhqF52RrTxlJ2Bcofn-14" value="" style="html=1;overflow=block;blockSpacing=1;whiteSpace=wrap;fontSize=13;spacing=0;strokeColor=#cc4e00;strokeOpacity=100;rounded=1;absoluteArcSize=1;arcSize=9;rotation=-148.97158700260346;strokeWidth=2.3;lucidId=myWKMHK7aeNB;" parent="1" vertex="1">
          <mxGeometry x="744" y="432" width="22" height="2" as="geometry" />
        </mxCell>
        <mxCell id="v0HhqF52RrTxlJ2Bcofn-15" value="" style="html=1;jettySize=18;whiteSpace=wrap;fontSize=13;strokeColor=#cc4e00;strokeOpacity=100;strokeWidth=2.3;rounded=1;arcSize=12;edgeStyle=orthogonalEdgeStyle;startArrow=none;endArrow=none;entryX=0.958;entryY=0.009;entryPerimeter=0;lucidId=myWKFiB01itC;" parent="1" target="v0HhqF52RrTxlJ2Bcofn-14" edge="1">
          <mxGeometry width="100" height="100" relative="1" as="geometry">
            <Array as="points">
              <mxPoint x="788" y="429" />
              <mxPoint x="788" y="429" />
            </Array>
            <mxPoint x="832" y="429" as="sourcePoint" />
          </mxGeometry>
        </mxCell>
        <mxCell id="v0HhqF52RrTxlJ2Bcofn-16" value="" style="html=1;overflow=block;blockSpacing=1;whiteSpace=wrap;fontSize=13;spacing=0;strokeColor=#cc4e00;strokeOpacity=100;rounded=1;absoluteArcSize=1;arcSize=9;rotation=-217.08589013477888;strokeWidth=2.3;lucidId=myWKEDucyfuA;" parent="1" vertex="1">
          <mxGeometry x="743" y="422" width="21" height="2" as="geometry" />
        </mxCell>
        <mxCell id="v0HhqF52RrTxlJ2Bcofn-17" value="" style="html=1;overflow=block;blockSpacing=1;whiteSpace=wrap;shape=image;fontSize=13;spacing=3.8;strokeColor=none;strokeOpacity=100;strokeWidth=0;image=https://images.lucid.app/images/78cffcd2-ef0f-4c73-9c18-2c083db685a7/content;imageAspect=0;lucidId=myWK8eqSSgLT;" parent="1" vertex="1">
          <mxGeometry x="842" y="382" width="60" height="60" as="geometry" />
        </mxCell>
        <mxCell id="v0HhqF52RrTxlJ2Bcofn-18" value="Request Sent" style="html=1;overflow=block;blockSpacing=1;whiteSpace=wrap;fontSize=13.3;fontColor=#3a414a;fontStyle=1;spacing=3.8;strokeOpacity=0;fillOpacity=0;rounded=1;absoluteArcSize=1;arcSize=9;fillColor=#ffffff;strokeWidth=0.8;lucidId=myWKjsMiApPu;" parent="1" vertex="1">
          <mxGeometry x="812" y="342" width="120" height="39" as="geometry" />
        </mxCell>
        <mxCell id="v0HhqF52RrTxlJ2Bcofn-19" value="" style="html=1;overflow=block;blockSpacing=1;whiteSpace=wrap;fontSize=13;spacing=0;strokeColor=#cc4e00;strokeOpacity=100;rounded=1;absoluteArcSize=1;arcSize=9;rotation=-328.9715870026032;strokeWidth=2.3;lucidId=myWKohdIam9H;" parent="1" vertex="1">
          <mxGeometry x="980" y="398" width="20" height="2" as="geometry" />
        </mxCell>
        <mxCell id="v0HhqF52RrTxlJ2Bcofn-20" value="" style="html=1;jettySize=18;whiteSpace=wrap;fontSize=13;strokeColor=#cc4e00;strokeOpacity=100;strokeWidth=2.3;rounded=1;arcSize=12;edgeStyle=orthogonalEdgeStyle;startArrow=none;endArrow=none;entryX=0.999;entryY=0.408;entryPerimeter=0;lucidId=myWKJJC2YIvs;" parent="1" target="v0HhqF52RrTxlJ2Bcofn-21" edge="1">
          <mxGeometry width="100" height="100" relative="1" as="geometry">
            <Array as="points">
              <mxPoint x="997" y="405" />
            </Array>
            <mxPoint x="910" y="405" as="sourcePoint" />
          </mxGeometry>
        </mxCell>
        <mxCell id="v0HhqF52RrTxlJ2Bcofn-21" value="" style="html=1;overflow=block;blockSpacing=1;whiteSpace=wrap;fontSize=13;spacing=0;strokeColor=#cc4e00;strokeOpacity=100;rounded=1;absoluteArcSize=1;arcSize=9;rotation=-37.085890134779255;strokeWidth=2.3;lucidId=myWK.SpT8Xq3;" parent="1" vertex="1">
          <mxGeometry x="983" y="408" width="15" height="2" as="geometry" />
        </mxCell>
        <mxCell id="v0HhqF52RrTxlJ2Bcofn-22" value="" style="html=1;overflow=block;blockSpacing=1;whiteSpace=wrap;fontSize=13;spacing=0;strokeColor=#cc4e00;strokeOpacity=100;rounded=1;absoluteArcSize=1;arcSize=9;rotation=-148.9715870026038;strokeWidth=2.3;lucidId=myWK2ZEP3nzf;" parent="1" vertex="1">
          <mxGeometry x="907" y="431" width="17" height="2" as="geometry" />
        </mxCell>
        <mxCell id="v0HhqF52RrTxlJ2Bcofn-23" value="" style="html=1;jettySize=18;whiteSpace=wrap;fontSize=13;strokeColor=#cc4e00;strokeOpacity=100;strokeWidth=2.3;rounded=1;arcSize=12;edgeStyle=orthogonalEdgeStyle;startArrow=none;endArrow=none;lucidId=myWKrsvx3mJX;" parent="1" edge="1">
          <mxGeometry width="100" height="100" relative="1" as="geometry">
            <Array as="points" />
            <mxPoint x="998" y="429" as="sourcePoint" />
            <mxPoint x="911" y="429" as="targetPoint" />
          </mxGeometry>
        </mxCell>
        <mxCell id="v0HhqF52RrTxlJ2Bcofn-24" value="" style="html=1;overflow=block;blockSpacing=1;whiteSpace=wrap;fontSize=13;spacing=0;strokeColor=#cc4e00;strokeOpacity=100;rounded=1;absoluteArcSize=1;arcSize=9;rotation=-217.08589013477888;strokeWidth=2.3;lucidId=myWKOoVycPqk;" parent="1" vertex="1">
          <mxGeometry x="906" y="422" width="21" height="2" as="geometry" />
        </mxCell>
        <mxCell id="v0HhqF52RrTxlJ2Bcofn-25" value="" style="html=1;overflow=block;blockSpacing=1;whiteSpace=wrap;shape=image;fontSize=13;spacing=3.8;strokeColor=none;strokeOpacity=100;strokeWidth=0;image=https://images.lucid.app/images/c96c75c4-0dd8-4b45-ad46-53660116a7bb/content;imageAspect=0;lucidId=myWKcB61P73H;" parent="1" vertex="1">
          <mxGeometry x="1010" y="302" width="195" height="150" as="geometry" />
        </mxCell>
        <mxCell id="v0HhqF52RrTxlJ2Bcofn-26" value="KTEL Language School &#xa;&amp; Tutorial Services" style="html=1;overflow=block;blockSpacing=1;whiteSpace=wrap;fontSize=9.3;fontColor=#dfe3e8;fontStyle=1;spacing=3.8;strokeOpacity=0;fillOpacity=0;rounded=1;absoluteArcSize=1;arcSize=9;rotation=9.045809913644753;fillColor=#ffffff;strokeWidth=0.8;lucidId=myWKau4vhZo0;" parent="1" vertex="1">
          <mxGeometry x="1073" y="349" width="103" height="45" as="geometry" />
        </mxCell>
        <mxCell id="v0HhqF52RrTxlJ2Bcofn-27" value="" style="html=1;overflow=block;blockSpacing=1;whiteSpace=wrap;shape=image;fontSize=13;spacing=3.8;strokeColor=none;strokeOpacity=100;rotation=9.822244719577993;strokeWidth=0;image=https://images.lucid.app/images/e87304b1-a209-4a06-802d-6df0fce32df4/content;imageAspect=0;lucidId=myWKmiDDyGE1;" parent="1" vertex="1">
          <mxGeometry x="1086" y="320" width="27" height="20" as="geometry" />
        </mxCell>
        <mxCell id="v0HhqF52RrTxlJ2Bcofn-28" value="Page" style="html=1;overflow=block;blockSpacing=1;whiteSpace=wrap;fontSize=15;fontColor=#cfe4ff;fontStyle=1;spacing=3.8;strokeOpacity=0;rounded=1;absoluteArcSize=1;arcSize=19.5;rotation=5.545068709570326;flipH=1;flipV=1;fillColor=#b4d7ff;gradientColor=#6db1ff;strokeWidth=0.8;lucidId=myWKkjEK7TuE;" parent="1" vertex="1">
          <mxGeometry x="1116" y="323" width="60" height="25" as="geometry" />
        </mxCell>
        <mxCell id="v0HhqF52RrTxlJ2Bcofn-29" value="" style="html=1;overflow=block;blockSpacing=1;whiteSpace=wrap;shape=image;fontSize=13;spacing=3.8;strokeColor=none;strokeOpacity=100;strokeWidth=0;image=https://images.lucid.app/images/2bd9658d-0d79-4cc4-ba22-f0105dff800c/content;imageAspect=0;lucidId=myWK.zPP7fFf;" parent="1" vertex="1">
          <mxGeometry x="1320" y="311" width="165" height="130" as="geometry" />
        </mxCell>
        <mxCell id="v0HhqF52RrTxlJ2Bcofn-30" value="User (Teachers)" style="html=1;overflow=block;blockSpacing=1;whiteSpace=wrap;fontSize=18.3;fontColor=#3a414a;fontStyle=1;spacing=3.8;strokeOpacity=0;fillOpacity=0;rounded=1;absoluteArcSize=1;arcSize=9;fillColor=#ffffff;strokeWidth=0.8;lucidId=myWKMxnN7zxY;" parent="1" vertex="1">
          <mxGeometry x="1320" y="434" width="158" height="51" as="geometry" />
        </mxCell>
        <mxCell id="v0HhqF52RrTxlJ2Bcofn-31" value="" style="html=1;overflow=block;blockSpacing=1;whiteSpace=wrap;fontSize=13;spacing=0;strokeColor=#cc4e00;strokeOpacity=100;rounded=1;absoluteArcSize=1;arcSize=9;rotation=-328.9715870026036;strokeWidth=2.3;lucidId=myWKP83vEwbj;" parent="1" vertex="1">
          <mxGeometry x="1289" y="394" width="17" height="2" as="geometry" />
        </mxCell>
        <mxCell id="v0HhqF52RrTxlJ2Bcofn-32" value="" style="html=1;overflow=block;blockSpacing=1;whiteSpace=wrap;fontSize=13;spacing=0;strokeColor=#cc4e00;strokeOpacity=100;rounded=1;absoluteArcSize=1;arcSize=9;rotation=-37.08589013477966;strokeWidth=2.3;lucidId=myWKmTNl4RCy;" parent="1" vertex="1">
          <mxGeometry x="1290" y="403" width="16" height="2" as="geometry" />
        </mxCell>
        <mxCell id="v0HhqF52RrTxlJ2Bcofn-33" value="" style="html=1;jettySize=18;whiteSpace=wrap;fontSize=13;strokeColor=#cc4e00;strokeOpacity=100;strokeWidth=2.3;rounded=1;arcSize=12;edgeStyle=orthogonalEdgeStyle;startArrow=none;endArrow=none;entryX=0.907;entryY=0.955;entryPerimeter=0;lucidId=myWKfoa0JoJk;" parent="1" target="v0HhqF52RrTxlJ2Bcofn-25" edge="1">
          <mxGeometry width="100" height="100" relative="1" as="geometry">
            <Array as="points">
              <mxPoint x="1315" y="413" />
              <mxPoint x="1258" y="413" />
              <mxPoint x="1258" y="449" />
              <mxPoint x="1201" y="449" />
            </Array>
            <mxPoint x="1305" y="413" as="sourcePoint" />
          </mxGeometry>
        </mxCell>
        <mxCell id="v0HhqF52RrTxlJ2Bcofn-34" value="" style="html=1;overflow=block;blockSpacing=1;whiteSpace=wrap;fontSize=13;spacing=0;strokeColor=#cc4e00;strokeOpacity=100;rounded=1;absoluteArcSize=1;arcSize=9;rotation=-148.97158700260337;strokeWidth=2.3;lucidId=myWK.X~UOmCQ;" parent="1" vertex="1">
          <mxGeometry x="1184" y="449" width="16" height="2" as="geometry" />
        </mxCell>
        <mxCell id="v0HhqF52RrTxlJ2Bcofn-35" value="" style="html=1;overflow=block;blockSpacing=1;whiteSpace=wrap;fontSize=13;spacing=0;strokeColor=#cc4e00;strokeOpacity=100;rounded=1;absoluteArcSize=1;arcSize=9;rotation=-217.08589013477874;strokeWidth=2.3;lucidId=myWK0TJVt5hc;" parent="1" vertex="1">
          <mxGeometry x="1184" y="440" width="17" height="2" as="geometry" />
        </mxCell>
        <mxCell id="v0HhqF52RrTxlJ2Bcofn-36" value="25 minutes free trial class" style="html=1;overflow=block;blockSpacing=1;whiteSpace=wrap;fontSize=13.3;fontColor=#3a414a;fontStyle=1;spacing=3.8;strokeOpacity=0;fillOpacity=0;rounded=1;absoluteArcSize=1;arcSize=9;fillColor=#ffffff;strokeWidth=0.8;lucidId=myWKeKsR4WcJ;" parent="1" vertex="1">
          <mxGeometry x="812" y="452" width="120" height="39" as="geometry" />
        </mxCell>
        <mxCell id="v0HhqF52RrTxlJ2Bcofn-37" value="Subscribe the Package" style="html=1;overflow=block;blockSpacing=1;whiteSpace=wrap;rhombus;fontSize=6.7;fontColor=#3a414a;fontStyle=1;spacing=3.8;strokeColor=#3a414a;strokeOpacity=100;rounded=1;absoluteArcSize=1;arcSize=9;strokeWidth=0.8;lucidId=myWKYk2-wWsz;" parent="1" vertex="1">
          <mxGeometry x="639" y="508" width="75" height="44" as="geometry" />
        </mxCell>
        <mxCell id="v0HhqF52RrTxlJ2Bcofn-38" value="" style="html=1;jettySize=18;whiteSpace=wrap;fontSize=13;strokeColor=#cc4e00;strokeOpacity=100;strokeWidth=2.3;rounded=1;arcSize=12;edgeStyle=orthogonalEdgeStyle;startArrow=none;endArrow=none;lucidId=myWKHPx_Z1_i;" parent="1" edge="1">
          <mxGeometry width="100" height="100" relative="1" as="geometry">
            <Array as="points">
              <mxPoint x="486" y="370" />
              <mxPoint x="486" y="406" />
            </Array>
            <mxPoint x="411" y="370" as="sourcePoint" />
            <mxPoint x="525" y="406" as="targetPoint" />
          </mxGeometry>
        </mxCell>
        <mxCell id="v0HhqF52RrTxlJ2Bcofn-39" value="" style="html=1;overflow=block;blockSpacing=1;whiteSpace=wrap;fontSize=13;spacing=0;strokeColor=#cc4e00;strokeOpacity=100;rounded=1;absoluteArcSize=1;arcSize=9;rotation=-328.9715870026036;strokeWidth=2.3;lucidId=myWK-sY7WTFO;" parent="1" vertex="1">
          <mxGeometry x="509" y="400" width="17" height="2" as="geometry" />
        </mxCell>
        <mxCell id="v0HhqF52RrTxlJ2Bcofn-40" value="" style="html=1;overflow=block;blockSpacing=1;whiteSpace=wrap;fontSize=13;spacing=0;strokeColor=#cc4e00;strokeOpacity=100;rounded=1;absoluteArcSize=1;arcSize=9;rotation=-37.08589013477966;strokeWidth=2.3;lucidId=myWKYvFFCObJ;" parent="1" vertex="1">
          <mxGeometry x="510" y="409" width="16" height="2" as="geometry" />
        </mxCell>
        <mxCell id="v0HhqF52RrTxlJ2Bcofn-41" value="" style="html=1;jettySize=18;whiteSpace=wrap;fontSize=13;strokeColor=#cc4e00;strokeOpacity=100;strokeWidth=2.3;rounded=1;arcSize=12;edgeStyle=orthogonalEdgeStyle;startArrow=none;endArrow=none;lucidId=myWKbygB1AR4;" parent="1" edge="1">
          <mxGeometry width="100" height="100" relative="1" as="geometry">
            <Array as="points">
              <mxPoint x="489" y="419" />
              <mxPoint x="489" y="454" />
            </Array>
            <mxPoint x="525" y="419" as="sourcePoint" />
            <mxPoint x="405" y="454" as="targetPoint" />
          </mxGeometry>
        </mxCell>
        <mxCell id="v0HhqF52RrTxlJ2Bcofn-42" value="" style="html=1;overflow=block;blockSpacing=1;whiteSpace=wrap;shape=image;fontSize=13;spacing=3.8;strokeColor=none;strokeOpacity=100;strokeWidth=0;image=https://images.lucid.app/images/ff774e51-11c7-481a-95a1-58c0d8e6b255/content;imageAspect=0;lucidId=myWKNn2xXinh;" parent="1" vertex="1">
          <mxGeometry x="630" y="597" width="89" height="89" as="geometry" />
        </mxCell>
        <mxCell id="v0HhqF52RrTxlJ2Bcofn-43" value="" style="html=1;jettySize=18;whiteSpace=wrap;fontSize=13;strokeColor=#cc4e00;strokeOpacity=100;strokeWidth=2.3;rounded=1;arcSize=12;edgeStyle=orthogonalEdgeStyle;startArrow=none;endArrow=none;entryX=0.971;entryY=0.5;entryPerimeter=0;lucidId=myWKs4MYVFNm;" parent="1" target="v0HhqF52RrTxlJ2Bcofn-37" edge="1">
          <mxGeometry width="100" height="100" relative="1" as="geometry">
            <Array as="points">
              <mxPoint x="825" y="530" />
            </Array>
            <mxPoint x="825" y="530" as="sourcePoint" />
          </mxGeometry>
        </mxCell>
        <mxCell id="v0HhqF52RrTxlJ2Bcofn-44" value="YES" style="text;html=1;resizable=0;labelBackgroundColor=default;align=center;verticalAlign=middle;fontStyle=1;fontColor=#333333;fontSize=13.3;" parent="v0HhqF52RrTxlJ2Bcofn-43" vertex="1">
          <mxGeometry relative="1" as="geometry" />
        </mxCell>
        <mxCell id="v0HhqF52RrTxlJ2Bcofn-45" value="" style="html=1;overflow=block;blockSpacing=1;whiteSpace=wrap;fontSize=13;spacing=0;strokeColor=#cc4e00;strokeOpacity=100;rounded=1;absoluteArcSize=1;arcSize=9;rotation=-270;strokeWidth=2.3;lucidId=myWK1Dxcm62O;" parent="1" vertex="1">
          <mxGeometry x="651" y="576" width="50" height="2" as="geometry" />
        </mxCell>
        <mxCell id="v0HhqF52RrTxlJ2Bcofn-46" value="NO" style="html=1;overflow=block;blockSpacing=1;whiteSpace=wrap;fontSize=13.3;fontColor=#3a414a;fontStyle=1;spacing=3.8;strokeOpacity=0;fillOpacity=0;rounded=1;absoluteArcSize=1;arcSize=9;fillColor=#ffffff;strokeWidth=0.8;lucidId=myWKc77m_xRs;" parent="1" vertex="1">
          <mxGeometry x="647" y="563" width="59" height="24" as="geometry" />
        </mxCell>
        <mxCell id="v0HhqF52RrTxlJ2Bcofn-47" value="View Services KTEL offers:&#xa;Send Requests and etc." style="html=1;overflow=block;blockSpacing=1;whiteSpace=wrap;fontSize=13.3;fontColor=#3a414a;fontStyle=1;spacing=3.8;strokeOpacity=0;fillOpacity=0;rounded=1;absoluteArcSize=1;arcSize=9;fillColor=#ffffff;strokeWidth=0.8;lucidId=myWKl_sEGF7H;" parent="1" vertex="1">
          <mxGeometry x="540" y="445" width="205" height="60" as="geometry" />
        </mxCell>
        <mxCell id="v0HhqF52RrTxlJ2Bcofn-48" value="" style="html=1;overflow=block;blockSpacing=1;whiteSpace=wrap;fontSize=13;spacing=0;strokeColor=#cc4e00;strokeOpacity=100;rounded=1;absoluteArcSize=1;arcSize=9;rotation=-238.97158700260422;strokeWidth=2.3;lucidId=myWKUo9~Vzel;" parent="1" vertex="1">
          <mxGeometry x="671" y="595" width="21" height="2" as="geometry" />
        </mxCell>
        <mxCell id="v0HhqF52RrTxlJ2Bcofn-49" value="" style="html=1;overflow=block;blockSpacing=1;whiteSpace=wrap;fontSize=13;spacing=0;strokeColor=#cc4e00;strokeOpacity=100;rounded=1;absoluteArcSize=1;arcSize=9;rotation=52.9141098652211;strokeWidth=2.3;lucidId=myWKctn90bMz;" parent="1" vertex="1">
          <mxGeometry x="661" y="596" width="21" height="2" as="geometry" />
        </mxCell>
        <mxCell id="v0HhqF52RrTxlJ2Bcofn-50" value="" style="html=1;overflow=block;blockSpacing=1;whiteSpace=wrap;fontSize=13;spacing=0;strokeColor=#cc4e00;strokeOpacity=100;rounded=1;absoluteArcSize=1;arcSize=9;rotation=-148.9715870026038;strokeWidth=2.3;lucidId=myWKK4PIdQz6;" parent="1" vertex="1">
          <mxGeometry x="404" y="457" width="17" height="2" as="geometry" />
        </mxCell>
        <mxCell id="v0HhqF52RrTxlJ2Bcofn-51" value="" style="html=1;overflow=block;blockSpacing=1;whiteSpace=wrap;fontSize=13;spacing=0;strokeColor=#cc4e00;strokeOpacity=100;rounded=1;absoluteArcSize=1;arcSize=9;rotation=-217.08589013477888;strokeWidth=2.3;lucidId=myWKTRIwrgkH;" parent="1" vertex="1">
          <mxGeometry x="404" y="448" width="21" height="2" as="geometry" />
        </mxCell>
        <mxCell id="v0HhqF52RrTxlJ2Bcofn-52" value="" style="html=1;overflow=block;blockSpacing=1;whiteSpace=wrap;fontSize=13;spacing=0;strokeColor=#cc4e00;strokeOpacity=100;rounded=1;absoluteArcSize=1;arcSize=9;rotation=31.028412997395776;strokeWidth=2.3;lucidId=myWK1Ol-dkaW;" parent="1" vertex="1">
          <mxGeometry x="809" y="524" width="21" height="2" as="geometry" />
        </mxCell>
        <mxCell id="v0HhqF52RrTxlJ2Bcofn-53" value="" style="html=1;overflow=block;blockSpacing=1;whiteSpace=wrap;fontSize=13;spacing=0;strokeColor=#cc4e00;strokeOpacity=100;rounded=1;absoluteArcSize=1;arcSize=9;rotation=-37.0858901347789;strokeWidth=2.3;lucidId=myWK4nkJueUQ;" parent="1" vertex="1">
          <mxGeometry x="810" y="534" width="21" height="2" as="geometry" />
        </mxCell>
        <mxCell id="v0HhqF52RrTxlJ2Bcofn-54" value="" style="html=1;overflow=block;blockSpacing=1;whiteSpace=wrap;shape=image;fontSize=13;spacing=3.8;strokeColor=none;strokeOpacity=100;strokeWidth=0;image=https://images.lucid.app/images/3254b4e1-76e5-4869-8675-22a69b0db96c/content;imageAspect=0;lucidId=myWKsRoSJcF2;" parent="1" vertex="1">
          <mxGeometry x="819" y="481" width="103" height="98" as="geometry" />
        </mxCell>
        <mxCell id="v0HhqF52RrTxlJ2Bcofn-55" value="" style="html=1;jettySize=18;whiteSpace=wrap;fontSize=13;strokeColor=#3a414a;strokeOpacity=100;strokeWidth=0.8;rounded=1;arcSize=12;edgeStyle=orthogonalEdgeStyle;startArrow=none;endArrow=none;exitY=0.73;exitPerimeter=0;entryY=0.73;entryPerimeter=0;lucidId=myWK14VAFSGJ;" parent="1" source="v0HhqF52RrTxlJ2Bcofn-54" target="v0HhqF52RrTxlJ2Bcofn-54" edge="1">
          <mxGeometry width="100" height="100" relative="1" as="geometry">
            <Array as="points">
              <mxPoint x="914" y="573" generated="1" />
              <mxPoint x="914" y="573" generated="1" />
            </Array>
          </mxGeometry>
        </mxCell>
        <mxCell id="v0HhqF52RrTxlJ2Bcofn-56" value="&lt;div style=&quot;display: flex; justify-content: center; text-align: center; align-items: baseline; font-size: 0; line-height: 1.25;margin-top: -2px;&quot;&gt;&lt;span&gt;&lt;span style=&quot;font-size:13.3px;color:#3a414a;font-weight: bold;&quot;&gt;Requests Received:&#xa;&lt;/span&gt;&lt;span style=&quot;font-size:10px;color:#3a414a;font-weight: bold;&quot;&gt;Viewed &amp; Approved.&lt;/span&gt;&lt;/span&gt;&lt;/div&gt;" style="html=1;overflow=block;blockSpacing=1;whiteSpace=wrap;fontSize=13;spacing=3.8;strokeOpacity=0;fillOpacity=0;rounded=1;absoluteArcSize=1;arcSize=9;fillColor=#ffffff;strokeWidth=0.8;lucidId=myWKw0ePdv6m;" parent="1" vertex="1">
          <mxGeometry x="1005" y="445" width="205" height="60" as="geometry" />
        </mxCell>
        <mxCell id="v0HhqF52RrTxlJ2Bcofn-57" value="Current Process" style="html=1;overflow=block;blockSpacing=1;whiteSpace=wrap;fontSize=30;fontColor=#3a414a;fontStyle=1;spacing=3.8;strokeOpacity=0;fillOpacity=0;rounded=1;absoluteArcSize=1;arcSize=9;fillColor=#ffffff;strokeWidth=0.8;lucidId=myWKAfrPZ9On;" parent="1" vertex="1">
          <mxGeometry x="712" y="160" width="269" height="79" as="geometry" />
        </mxCell>
        <mxCell id="v0HhqF52RrTxlJ2Bcofn-58" value="Payment through:&#xa;GCash, bank transfer, and etc." style="html=1;overflow=block;blockSpacing=1;whiteSpace=wrap;fontSize=13.3;fontColor=#3a414a;fontStyle=1;align=center;spacing=3.8;verticalAlign=middle;strokeOpacity=0;fillOpacity=0;rounded=1;absoluteArcSize=1;arcSize=9;fillColor=#ffffff;strokeWidth=0.8;lucidId=myWKrbFU~5fy;" parent="1" vertex="1">
          <mxGeometry x="788" y="563" width="168" height="55" as="geometry" />
        </mxCell>
      </root>
    </mxGraphModel>
  </diagram>
  <diagram name="KTEL Teacher/Customer Diagram" id="FIIXcnWz085rzfldTE29">
    <mxGraphModel dx="2240" dy="1044" grid="0" gridSize="10" guides="1" tooltips="1" connect="1" arrows="1" fold="1" page="1" pageScale="1" pageWidth="850" pageHeight="1100" math="0" shadow="0">
      <root>
        <mxCell id="0" />
        <mxCell id="1" parent="0" />
        <mxCell id="19tO0s0q1XUuuVXS7n7F-42" style="edgeStyle=orthogonalEdgeStyle;rounded=0;orthogonalLoop=1;jettySize=auto;html=1;entryX=0.5;entryY=1;entryDx=0;entryDy=0;strokeColor=#4D4D4D;" parent="1" source="19tO0s0q1XUuuVXS7n7F-36" target="19tO0s0q1XUuuVXS7n7F-8" edge="1">
          <mxGeometry relative="1" as="geometry" />
        </mxCell>
        <mxCell id="19tO0s0q1XUuuVXS7n7F-19" style="edgeStyle=orthogonalEdgeStyle;rounded=0;orthogonalLoop=1;jettySize=auto;html=1;entryX=0.5;entryY=1;entryDx=0;entryDy=0;entryPerimeter=0;strokeColor=#009900;" parent="1" source="19tO0s0q1XUuuVXS7n7F-17" target="hV1PRbwUxpesttEf0i1S-37" edge="1">
          <mxGeometry relative="1" as="geometry" />
        </mxCell>
        <mxCell id="19tO0s0q1XUuuVXS7n7F-20" value="Yes" style="edgeLabel;html=1;align=center;verticalAlign=middle;resizable=0;points=[];" parent="19tO0s0q1XUuuVXS7n7F-19" vertex="1" connectable="0">
          <mxGeometry x="0.4521" relative="1" as="geometry">
            <mxPoint y="1" as="offset" />
          </mxGeometry>
        </mxCell>
        <mxCell id="hV1PRbwUxpesttEf0i1S-5" value="" style="group;dropTarget=0;pointerEvents=0;" parent="1" vertex="1">
          <mxGeometry x="606" y="49" width="640" height="69" as="geometry" />
        </mxCell>
        <UserObject label="KTEL FLOW DIAGRAM" placeholders="1" id="hV1PRbwUxpesttEf0i1S-6">
          <mxCell style="html=1;overflow=block;blockSpacing=1;whiteSpace=wrap;fontSize=23;fontColor=#a9afb8;fontStyle=1;align=center;spacingLeft=7;spacingRight=7;spacingTop=2;spacing=3;strokeOpacity=0;fillOpacity=0;rounded=1;absoluteArcSize=1;arcSize=12;fillColor=#ffffff;strokeWidth=1.5;lucidId=SuaB0mNpY13K;" parent="hV1PRbwUxpesttEf0i1S-5" vertex="1">
            <mxGeometry width="640" height="52" as="geometry" />
          </mxCell>
        </UserObject>
        <mxCell id="hV1PRbwUxpesttEf0i1S-8" value="" style="html=1;jettySize=18;whiteSpace=wrap;fontSize=13;fontFamily=Helvetica;strokeColor=#a9afb8;strokeOpacity=100;strokeWidth=1.5;rounded=0;startArrow=none;endArrow=none;lucidId=SuaBUnwJteK4;" parent="hV1PRbwUxpesttEf0i1S-5" edge="1">
          <mxGeometry width="100" height="100" relative="1" as="geometry">
            <Array as="points" />
            <mxPoint x="191" y="47" as="sourcePoint" />
            <mxPoint x="454" y="47" as="targetPoint" />
          </mxGeometry>
        </mxCell>
        <mxCell id="hV1PRbwUxpesttEf0i1S-10" value="&lt;div style=&quot;display: flex; justify-content: center; text-align: center; align-items: baseline; line-height: 1.25; margin-top: -2px; font-size: 0px;&quot;&gt;&lt;span&gt;&lt;span style=&quot;font-size:13.5px;color:#3a414a;font-weight: bold;&quot;&gt;User&lt;/span&gt;&lt;span style=&quot;font-size:20.2px;color:#3a414a;font-weight: bold;&quot;&gt;&lt;br&gt;&lt;/span&gt;&lt;/span&gt;&lt;/div&gt;&lt;div style=&quot;display: flex; justify-content: center; text-align: center; align-items: baseline; line-height: 1.25; margin-top: -2px;&quot;&gt;&lt;span style=&quot;color: rgb(58, 65, 74);&quot;&gt;&lt;span style=&quot;color: rgb(58, 65, 74);&quot;&gt;&lt;font style=&quot;font-size: 9px;&quot;&gt;Customer/Teacher&lt;/font&gt;&lt;/span&gt;&lt;/span&gt;&lt;/div&gt;" style="html=1;overflow=block;blockSpacing=1;whiteSpace=wrap;fontSize=13;spacing=9;strokeColor=#3a414a;strokeOpacity=100;fillOpacity=0;rounded=1;absoluteArcSize=1;arcSize=12;fillColor=#000000;strokeWidth=0.8;lucidId=HEWKmNeVF82c;" parent="1" vertex="1">
          <mxGeometry x="255" y="512" width="81" height="60" as="geometry" />
        </mxCell>
        <mxCell id="hV1PRbwUxpesttEf0i1S-11" value="" style="html=1;jettySize=18;whiteSpace=wrap;fontSize=13;strokeColor=#4c535d;strokeOpacity=100;strokeWidth=1.5;rounded=1;arcSize=24;edgeStyle=orthogonalEdgeStyle;startArrow=none;endArrow=block;endFill=1;exitX=1.005;exitY=0.5;exitPerimeter=0;entryX=-0.005;entryY=0.5;entryPerimeter=0;lucidId=jGWKvbgWV~2U;" parent="1" source="hV1PRbwUxpesttEf0i1S-10" target="hV1PRbwUxpesttEf0i1S-12" edge="1">
          <mxGeometry width="100" height="100" relative="1" as="geometry">
            <Array as="points" />
          </mxGeometry>
        </mxCell>
        <mxCell id="hV1PRbwUxpesttEf0i1S-12" value="Login" style="html=1;overflow=block;blockSpacing=1;whiteSpace=wrap;shape=process;fontSize=13.5;fontColor=#3a414a;fontStyle=1;align=center;spacing=3.8;strokeColor=#3a414a;strokeOpacity=100;fillOpacity=0;rounded=1;absoluteArcSize=1;arcSize=12;fillColor=#000000;strokeWidth=0.8;lucidId=BGWKLJnAHEOR;" parent="1" vertex="1">
          <mxGeometry x="390" y="512" width="81" height="60" as="geometry" />
        </mxCell>
        <mxCell id="hV1PRbwUxpesttEf0i1S-13" value="" style="html=1;jettySize=18;whiteSpace=wrap;fontSize=13;strokeColor=#4c535d;strokeOpacity=100;strokeWidth=1.5;rounded=1;arcSize=24;edgeStyle=orthogonalEdgeStyle;startArrow=none;endArrow=block;endFill=1;exitX=0.218;exitY=1.006;exitPerimeter=0;entryX=0.215;entryY=-0.012;entryPerimeter=0;lucidId=WHWKN7bPr-CG;" parent="1" source="hV1PRbwUxpesttEf0i1S-12" target="hV1PRbwUxpesttEf0i1S-14" edge="1">
          <mxGeometry width="100" height="100" relative="1" as="geometry">
            <Array as="points" />
          </mxGeometry>
        </mxCell>
        <mxCell id="19tO0s0q1XUuuVXS7n7F-18" style="edgeStyle=orthogonalEdgeStyle;rounded=0;orthogonalLoop=1;jettySize=auto;html=1;entryX=0;entryY=0.5;entryDx=0;entryDy=0;" parent="1" source="hV1PRbwUxpesttEf0i1S-14" target="19tO0s0q1XUuuVXS7n7F-17" edge="1">
          <mxGeometry relative="1" as="geometry">
            <Array as="points">
              <mxPoint x="430" y="1070" />
            </Array>
          </mxGeometry>
        </mxCell>
        <mxCell id="hV1PRbwUxpesttEf0i1S-14" value="Register" style="html=1;overflow=block;blockSpacing=1;whiteSpace=wrap;fontSize=13.5;fontColor=#3a414a;fontStyle=1;align=center;spacing=9;strokeColor=#3a414a;strokeOpacity=100;fillOpacity=0;rounded=1;absoluteArcSize=1;arcSize=12;fillColor=#000000;strokeWidth=1.5;lucidId=~HWK11kqJugp;" parent="1" vertex="1">
          <mxGeometry x="390" y="625" width="81" height="60" as="geometry" />
        </mxCell>
        <mxCell id="hV1PRbwUxpesttEf0i1S-15" value="" style="html=1;jettySize=18;whiteSpace=wrap;fontSize=13;strokeColor=#4c535d;strokeOpacity=100;strokeWidth=1.5;rounded=1;arcSize=24;edgeStyle=orthogonalEdgeStyle;startArrow=none;endArrow=block;endFill=1;exitX=0.803;exitY=-0.012;exitPerimeter=0;entryX=0.799;entryY=1.006;entryPerimeter=0;lucidId=XIWKZ2q~gl0U;" parent="1" source="hV1PRbwUxpesttEf0i1S-14" target="hV1PRbwUxpesttEf0i1S-12" edge="1">
          <mxGeometry width="100" height="100" relative="1" as="geometry">
            <Array as="points" />
          </mxGeometry>
        </mxCell>
        <mxCell id="hV1PRbwUxpesttEf0i1S-16" value="" style="html=1;jettySize=18;whiteSpace=wrap;fontSize=13;strokeColor=#4c535d;strokeOpacity=100;strokeWidth=1.5;rounded=1;arcSize=24;edgeStyle=orthogonalEdgeStyle;startArrow=none;endArrow=block;endFill=1;exitX=1.005;exitY=0.503;exitPerimeter=0;entryX=0.033;entryY=0.5;entryPerimeter=0;lucidId=gLWKua0bxqSi;" parent="1" source="hV1PRbwUxpesttEf0i1S-12" target="hV1PRbwUxpesttEf0i1S-18" edge="1">
          <mxGeometry width="100" height="100" relative="1" as="geometry">
            <Array as="points" />
          </mxGeometry>
        </mxCell>
        <mxCell id="UBVaZsS32jMbJEhEhMDU-2" style="edgeStyle=orthogonalEdgeStyle;rounded=0;orthogonalLoop=1;jettySize=auto;html=1;entryX=0;entryY=0.5;entryDx=0;entryDy=0;" parent="1" source="hV1PRbwUxpesttEf0i1S-17" target="UBVaZsS32jMbJEhEhMDU-1" edge="1">
          <mxGeometry relative="1" as="geometry">
            <Array as="points">
              <mxPoint x="576" y="199" />
            </Array>
          </mxGeometry>
        </mxCell>
        <mxCell id="UBVaZsS32jMbJEhEhMDU-63" style="edgeStyle=orthogonalEdgeStyle;rounded=0;orthogonalLoop=1;jettySize=auto;html=1;entryX=0;entryY=0.5;entryDx=0;entryDy=0;" parent="1" source="hV1PRbwUxpesttEf0i1S-17" target="19tO0s0q1XUuuVXS7n7F-77" edge="1">
          <mxGeometry relative="1" as="geometry" />
        </mxCell>
        <mxCell id="hV1PRbwUxpesttEf0i1S-17" value="Homepage" style="html=1;overflow=block;blockSpacing=1;whiteSpace=wrap;fontSize=13.5;fontColor=#3a414a;fontStyle=1;align=center;spacing=9;strokeColor=#3a414a;strokeOpacity=100;fillOpacity=100;rounded=1;absoluteArcSize=1;arcSize=12;fillColor=#d7faf5;strokeWidth=0.8;lucidId=DLWKfTEZRwC4;" parent="1" vertex="1">
          <mxGeometry x="535" y="370" width="81" height="60" as="geometry" />
        </mxCell>
        <mxCell id="hV1PRbwUxpesttEf0i1S-18" value="Teacher/&#xa;Customer" style="html=1;overflow=block;blockSpacing=1;whiteSpace=wrap;rhombus;fontSize=10.2;fontColor=#3a414a;fontStyle=1;align=center;spacing=3.8;strokeColor=#3a414a;strokeOpacity=100;fillOpacity=0;rounded=1;absoluteArcSize=1;arcSize=12;fillColor=#000000;strokeWidth=0.8;lucidId=TVWK1tCDvfoE;" parent="1" vertex="1">
          <mxGeometry x="535" y="512" width="81" height="60" as="geometry" />
        </mxCell>
        <mxCell id="hV1PRbwUxpesttEf0i1S-19" value="" style="html=1;jettySize=18;whiteSpace=wrap;fontSize=13;strokeColor=#4c535d;strokeOpacity=100;strokeWidth=1.5;rounded=1;arcSize=24;edgeStyle=orthogonalEdgeStyle;startArrow=none;endArrow=block;endFill=1;exitX=0.5;exitY=0.027;exitPerimeter=0;entryX=0.5;entryY=1.006;entryPerimeter=0;lucidId=9WWKR2croew0;" parent="1" source="hV1PRbwUxpesttEf0i1S-18" target="hV1PRbwUxpesttEf0i1S-17" edge="1">
          <mxGeometry width="100" height="100" relative="1" as="geometry">
            <Array as="points" />
          </mxGeometry>
        </mxCell>
        <mxCell id="hV1PRbwUxpesttEf0i1S-20" value="Teacher" style="text;html=1;resizable=0;labelBackgroundColor=default;align=center;verticalAlign=middle;fontStyle=1;fontColor=#3a414a;fontSize=8.5;" parent="hV1PRbwUxpesttEf0i1S-19" vertex="1">
          <mxGeometry x="-0.2691114702526135" relative="1" as="geometry" />
        </mxCell>
        <mxCell id="hV1PRbwUxpesttEf0i1S-21" value="" style="html=1;jettySize=18;whiteSpace=wrap;fontSize=13;strokeColor=#4c535d;strokeOpacity=100;strokeWidth=1.5;rounded=1;arcSize=24;edgeStyle=orthogonalEdgeStyle;startArrow=none;endArrow=block;endFill=1;exitX=0.5;exitY=0.973;exitPerimeter=0;entryX=0.5;entryY=-0.006;entryPerimeter=0;lucidId=wYWKn9AkL3mx;" parent="1" source="hV1PRbwUxpesttEf0i1S-18" target="hV1PRbwUxpesttEf0i1S-23" edge="1">
          <mxGeometry width="100" height="100" relative="1" as="geometry">
            <Array as="points" />
          </mxGeometry>
        </mxCell>
        <mxCell id="hV1PRbwUxpesttEf0i1S-22" value="Customer" style="text;html=1;resizable=0;labelBackgroundColor=default;align=center;verticalAlign=middle;fontStyle=1;fontColor=#3a414a;fontSize=8.5;" parent="hV1PRbwUxpesttEf0i1S-21" vertex="1">
          <mxGeometry relative="1" as="geometry" />
        </mxCell>
        <mxCell id="19tO0s0q1XUuuVXS7n7F-34" style="edgeStyle=orthogonalEdgeStyle;rounded=0;orthogonalLoop=1;jettySize=auto;html=1;entryX=0;entryY=0.5;entryDx=0;entryDy=0;" parent="1" source="hV1PRbwUxpesttEf0i1S-23" target="19tO0s0q1XUuuVXS7n7F-30" edge="1">
          <mxGeometry relative="1" as="geometry">
            <Array as="points">
              <mxPoint x="575" y="979" />
            </Array>
          </mxGeometry>
        </mxCell>
        <mxCell id="19tO0s0q1XUuuVXS7n7F-72" style="edgeStyle=orthogonalEdgeStyle;rounded=0;orthogonalLoop=1;jettySize=auto;html=1;" parent="1" source="hV1PRbwUxpesttEf0i1S-23" target="19tO0s0q1XUuuVXS7n7F-71" edge="1">
          <mxGeometry relative="1" as="geometry" />
        </mxCell>
        <mxCell id="hV1PRbwUxpesttEf0i1S-23" value="Homepage" style="html=1;overflow=block;blockSpacing=1;whiteSpace=wrap;fontSize=13.5;fontColor=#3a414a;fontStyle=1;align=center;spacing=9;strokeColor=#3a414a;strokeOpacity=100;fillOpacity=100;rounded=1;absoluteArcSize=1;arcSize=12;fillColor=#f4d9ff;strokeWidth=0.8;lucidId=XYWKg35ZBaua;" parent="1" vertex="1">
          <mxGeometry x="535" y="654" width="81" height="60" as="geometry" />
        </mxCell>
        <mxCell id="hV1PRbwUxpesttEf0i1S-24" value="&lt;font style=&quot;vertical-align: inherit;&quot;&gt;&lt;font style=&quot;vertical-align: inherit;&quot;&gt;&lt;font style=&quot;vertical-align: inherit;&quot;&gt;&lt;font style=&quot;vertical-align: inherit;&quot;&gt;&lt;b style=&quot;&quot;&gt;&lt;font style=&quot;vertical-align: inherit;&quot;&gt;&lt;font style=&quot;vertical-align: inherit;&quot;&gt;&lt;font style=&quot;vertical-align: inherit;&quot;&gt;&lt;font style=&quot;vertical-align: inherit;&quot;&gt;&lt;font style=&quot;font-size: 8px;&quot;&gt;&lt;font style=&quot;&quot;&gt;&lt;font style=&quot;vertical-align: inherit;&quot;&gt;&lt;font style=&quot;vertical-align: inherit;&quot;&gt;&lt;font style=&quot;vertical-align: inherit;&quot;&gt;&lt;font style=&quot;vertical-align: inherit;&quot;&gt;&lt;font style=&quot;vertical-align: inherit;&quot;&gt;&lt;font style=&quot;vertical-align: inherit;&quot;&gt;Create Package&lt;/font&gt;&lt;/font&gt;&lt;/font&gt;&lt;/font&gt;&lt;/font&gt;&lt;/font&gt;&lt;/font&gt;&lt;br&gt;&lt;/font&gt;&lt;font style=&quot;&quot;&gt;&lt;font style=&quot;vertical-align: inherit;&quot;&gt;&lt;font style=&quot;vertical-align: inherit;&quot;&gt;&lt;font style=&quot;vertical-align: inherit;&quot;&gt;&lt;font style=&quot;vertical-align: inherit;&quot;&gt;&lt;font style=&quot;vertical-align: inherit;&quot;&gt;&lt;font style=&quot;vertical-align: inherit; font-size: 6px;&quot;&gt;Kinder/Grade1&lt;/font&gt;&lt;/font&gt;&lt;/font&gt;&lt;/font&gt;&lt;/font&gt;&lt;/font&gt;&lt;/font&gt;&lt;br&gt;&lt;/font&gt;&lt;/font&gt;&lt;/font&gt;&lt;/font&gt;&lt;/b&gt;&lt;/font&gt;&lt;/font&gt;&lt;/font&gt;&lt;/font&gt;" style="html=1;overflow=block;blockSpacing=1;whiteSpace=wrap;rhombus;fontSize=6.8;fontColor=#3a414a;fontStyle=0;align=center;spacing=3.8;verticalAlign=middle;strokeColor=#3a414a;strokeOpacity=100;fillOpacity=100;rounded=1;absoluteArcSize=1;arcSize=12;fillColor=#d7faf5;strokeWidth=0.8;lucidId=nGXKatDdsa.F;" parent="1" vertex="1">
          <mxGeometry x="687.5" y="278.5" width="81" height="60" as="geometry" />
        </mxCell>
        <mxCell id="hV1PRbwUxpesttEf0i1S-27" value="&lt;font style=&quot;font-size: 10px;&quot;&gt;&lt;b style=&quot;&quot;&gt;Module&lt;/b&gt;&lt;/font&gt;" style="html=1;overflow=block;blockSpacing=1;swimlane;childLayout=stackLayout;horizontal=1;horizontalStack=0;resizeParent=1;resizeParentMax=0;resizeLast=0;collapsible=0;fontStyle=0;marginBottom=0;swimlaneFillColor=#d7faf5;startSize=28;whiteSpace=wrap;fontSize=13;align=center;spacing=0;strokeColor=#333333;strokeOpacity=100;fillOpacity=100;fillColor=#d7faf5;strokeWidth=1.5;" parent="1" vertex="1">
          <mxGeometry x="812.5" y="265" width="75" height="87" as="geometry" />
        </mxCell>
        <mxCell id="hV1PRbwUxpesttEf0i1S-28" value="&lt;font style=&quot;font-size: 8px;&quot;&gt;-ID&lt;br&gt;-Title&lt;br&gt;-Description&lt;/font&gt;" style="part=1;html=1;resizeHeight=0;strokeColor=none;fillColor=none;align=left;verticalAlign=middle;spacingLeft=4;spacingRight=4;overflow=hidden;rotatable=0;points=[[0,0.5],[1,0.5]];portConstraint=eastwest;swimlaneFillColor=#d7faf5;strokeOpacity=100;fillOpacity=100;whiteSpace=wrap;fontSize=13;fontStyle=0" parent="hV1PRbwUxpesttEf0i1S-27" vertex="1">
          <mxGeometry y="28" width="75" height="59" as="geometry" />
        </mxCell>
        <mxCell id="hV1PRbwUxpesttEf0i1S-31" value="&lt;span&gt;&lt;b&gt;&lt;font style=&quot;font-size: 10px;&quot;&gt;Chapter&lt;/font&gt;&lt;/b&gt;&lt;/span&gt;" style="html=1;overflow=block;blockSpacing=1;swimlane;childLayout=stackLayout;horizontal=1;horizontalStack=0;resizeParent=1;resizeParentMax=0;resizeLast=0;collapsible=0;fontStyle=0;marginBottom=0;swimlaneFillColor=#d7faf5;startSize=28;whiteSpace=wrap;fontSize=13;align=center;spacing=0;strokeColor=#333333;strokeOpacity=100;fillOpacity=100;fillColor=#d7faf5;strokeWidth=1.5;" parent="1" vertex="1">
          <mxGeometry x="1008.5" y="266" width="75" height="89" as="geometry" />
        </mxCell>
        <mxCell id="hV1PRbwUxpesttEf0i1S-32" value="&lt;font style=&quot;font-size: 8px;&quot;&gt;-ID&lt;br&gt;-Name&lt;br&gt;-Description&lt;/font&gt;" style="part=1;html=1;resizeHeight=0;strokeColor=none;fillColor=none;align=left;verticalAlign=middle;spacingLeft=4;spacingRight=4;overflow=hidden;rotatable=0;points=[[0,0.5],[1,0.5]];portConstraint=eastwest;swimlaneFillColor=#d7faf5;strokeOpacity=100;fillOpacity=100;whiteSpace=wrap;fontSize=13;fontStyle=0" parent="hV1PRbwUxpesttEf0i1S-31" vertex="1">
          <mxGeometry y="28" width="75" height="61" as="geometry" />
        </mxCell>
        <mxCell id="hV1PRbwUxpesttEf0i1S-33" value="Submit" style="html=1;overflow=block;blockSpacing=1;whiteSpace=wrap;rhombus;fontSize=6.8;fontColor=#3a414a;fontStyle=1;align=center;spacing=3.8;verticalAlign=middle;strokeColor=#3a414a;strokeOpacity=100;fillOpacity=100;rounded=1;absoluteArcSize=1;arcSize=12;fillColor=#d7faf5;strokeWidth=0.8;lucidId=jRXKOWMfbOe8;" parent="1" vertex="1">
          <mxGeometry x="1301" y="370" width="81" height="60" as="geometry" />
        </mxCell>
        <mxCell id="UBVaZsS32jMbJEhEhMDU-60" value="" style="edgeStyle=orthogonalEdgeStyle;rounded=0;orthogonalLoop=1;jettySize=auto;html=1;strokeColor=#009900;" parent="1" source="hV1PRbwUxpesttEf0i1S-37" target="hV1PRbwUxpesttEf0i1S-53" edge="1">
          <mxGeometry relative="1" as="geometry" />
        </mxCell>
        <mxCell id="UBVaZsS32jMbJEhEhMDU-61" value="&lt;font style=&quot;vertical-align: inherit;&quot;&gt;&lt;font style=&quot;vertical-align: inherit;&quot;&gt;Yes&lt;/font&gt;&lt;/font&gt;" style="edgeLabel;html=1;align=center;verticalAlign=middle;resizable=0;points=[];" parent="UBVaZsS32jMbJEhEhMDU-60" vertex="1" connectable="0">
          <mxGeometry x="-0.1075" relative="1" as="geometry">
            <mxPoint as="offset" />
          </mxGeometry>
        </mxCell>
        <mxCell id="hV1PRbwUxpesttEf0i1S-37" value="Database" style="html=1;overflow=block;blockSpacing=1;whiteSpace=wrap;shape=cylinder3;size=4;anchorPointDirection=0;boundedLbl=1;fontSize=20.2;fontColor=#3a414a;align=center;spacing=3.8;strokeColor=#3a414a;strokeOpacity=100;fillOpacity=100;rounded=1;absoluteArcSize=1;arcSize=12;fillColor=#fc9432;strokeWidth=0.8;lucidId=GSXKQ_698Z1O;" parent="1" vertex="1">
          <mxGeometry x="1544" y="480" width="118" height="147" as="geometry" />
        </mxCell>
        <mxCell id="hV1PRbwUxpesttEf0i1S-38" value="" style="html=1;jettySize=18;whiteSpace=wrap;fontSize=13;strokeColor=#009900;strokeOpacity=100;strokeWidth=0.8;rounded=1;arcSize=24;edgeStyle=orthogonalEdgeStyle;startArrow=none;endArrow=block;endFill=1;exitX=0.967;exitY=0.5;exitPerimeter=0;entryX=0.5;entryY=-0.003;entryPerimeter=0;lucidId=UUXK86KHpgv7;" parent="1" source="hV1PRbwUxpesttEf0i1S-33" target="hV1PRbwUxpesttEf0i1S-37" edge="1">
          <mxGeometry width="100" height="100" relative="1" as="geometry">
            <Array as="points">
              <mxPoint x="1603" y="400" />
            </Array>
          </mxGeometry>
        </mxCell>
        <mxCell id="hV1PRbwUxpesttEf0i1S-39" value="Yes" style="text;html=1;resizable=0;labelBackgroundColor=default;align=center;verticalAlign=middle;fontColor=#3a414a;fontSize=8.5;" parent="hV1PRbwUxpesttEf0i1S-38" vertex="1">
          <mxGeometry relative="1" as="geometry">
            <mxPoint as="offset" />
          </mxGeometry>
        </mxCell>
        <mxCell id="hV1PRbwUxpesttEf0i1S-41" value="" style="html=1;jettySize=18;whiteSpace=wrap;fontSize=13;strokeColor=#3a414a;strokeOpacity=100;strokeWidth=0.8;rounded=1;arcSize=24;edgeStyle=orthogonalEdgeStyle;startArrow=none;endArrow=block;endFill=1;entryX=0.033;entryY=0.5;entryPerimeter=0;lucidId=5VXK51CozAZl;" parent="1" target="hV1PRbwUxpesttEf0i1S-24" edge="1">
          <mxGeometry width="100" height="100" relative="1" as="geometry">
            <Array as="points">
              <mxPoint x="573.5" y="309" />
              <mxPoint x="690.5" y="309" />
            </Array>
            <mxPoint x="576" y="368" as="sourcePoint" />
          </mxGeometry>
        </mxCell>
        <mxCell id="hV1PRbwUxpesttEf0i1S-42" value="" style="html=1;jettySize=18;whiteSpace=wrap;fontSize=13;strokeColor=#009900;strokeOpacity=100;strokeWidth=0.8;rounded=1;arcSize=24;edgeStyle=orthogonalEdgeStyle;startArrow=none;endArrow=block;endFill=1;exitX=0.5;exitY=1;lucidId=BWXKIHZE9OXS;fontStyle=0;exitDx=0;exitDy=0;" parent="1" source="hV1PRbwUxpesttEf0i1S-24" edge="1">
          <mxGeometry width="100" height="100" relative="1" as="geometry">
            <Array as="points">
              <mxPoint x="728" y="400" />
              <mxPoint x="996" y="400" />
            </Array>
            <mxPoint x="996" y="370" as="targetPoint" />
          </mxGeometry>
        </mxCell>
        <mxCell id="hV1PRbwUxpesttEf0i1S-43" value="Yes" style="text;html=1;resizable=0;labelBackgroundColor=default;align=center;verticalAlign=middle;fontColor=#3a414a;fontSize=8.5;fontStyle=0" parent="hV1PRbwUxpesttEf0i1S-42" vertex="1">
          <mxGeometry relative="1" as="geometry" />
        </mxCell>
        <mxCell id="19tO0s0q1XUuuVXS7n7F-69" style="edgeStyle=orthogonalEdgeStyle;rounded=0;orthogonalLoop=1;jettySize=auto;html=1;entryX=1;entryY=0.5;entryDx=0;entryDy=0;strokeColor=#009900;" parent="1" source="hV1PRbwUxpesttEf0i1S-53" target="19tO0s0q1XUuuVXS7n7F-68" edge="1">
          <mxGeometry relative="1" as="geometry">
            <Array as="points">
              <mxPoint x="1379" y="662" />
            </Array>
          </mxGeometry>
        </mxCell>
        <mxCell id="19tO0s0q1XUuuVXS7n7F-70" value="Yes" style="edgeLabel;html=1;align=center;verticalAlign=middle;resizable=0;points=[];" parent="19tO0s0q1XUuuVXS7n7F-69" vertex="1" connectable="0">
          <mxGeometry x="0.2769" y="3" relative="1" as="geometry">
            <mxPoint y="1" as="offset" />
          </mxGeometry>
        </mxCell>
        <mxCell id="UBVaZsS32jMbJEhEhMDU-55" style="edgeStyle=orthogonalEdgeStyle;rounded=0;orthogonalLoop=1;jettySize=auto;html=1;entryX=1;entryY=0.5;entryDx=0;entryDy=0;strokeColor=#009900;" parent="1" target="19tO0s0q1XUuuVXS7n7F-78" edge="1">
          <mxGeometry relative="1" as="geometry">
            <mxPoint x="1387.0526315789475" y="523.5" as="sourcePoint" />
            <Array as="points">
              <mxPoint x="1387" y="438" />
            </Array>
          </mxGeometry>
        </mxCell>
        <mxCell id="UBVaZsS32jMbJEhEhMDU-56" value="&lt;font style=&quot;vertical-align: inherit;&quot;&gt;&lt;font style=&quot;vertical-align: inherit;&quot;&gt;Yes&lt;/font&gt;&lt;/font&gt;" style="edgeLabel;html=1;align=center;verticalAlign=middle;resizable=0;points=[];" parent="UBVaZsS32jMbJEhEhMDU-55" vertex="1" connectable="0">
          <mxGeometry x="0.1982" y="1" relative="1" as="geometry">
            <mxPoint as="offset" />
          </mxGeometry>
        </mxCell>
        <mxCell id="UBVaZsS32jMbJEhEhMDU-65" style="edgeStyle=orthogonalEdgeStyle;rounded=0;orthogonalLoop=1;jettySize=auto;html=1;entryX=1;entryY=0.5;entryDx=0;entryDy=0;strokeColor=#009900;" parent="1" source="hV1PRbwUxpesttEf0i1S-53" target="19tO0s0q1XUuuVXS7n7F-9" edge="1">
          <mxGeometry relative="1" as="geometry">
            <Array as="points">
              <mxPoint x="1379" y="833" />
            </Array>
          </mxGeometry>
        </mxCell>
        <mxCell id="UBVaZsS32jMbJEhEhMDU-66" value="&lt;font style=&quot;vertical-align: inherit;&quot;&gt;&lt;font style=&quot;vertical-align: inherit;&quot;&gt;Yes&lt;/font&gt;&lt;/font&gt;" style="edgeLabel;html=1;align=center;verticalAlign=middle;resizable=0;points=[];" parent="UBVaZsS32jMbJEhEhMDU-65" vertex="1" connectable="0">
          <mxGeometry x="-0.0513" relative="1" as="geometry">
            <mxPoint as="offset" />
          </mxGeometry>
        </mxCell>
        <mxCell id="hV1PRbwUxpesttEf0i1S-53" value="Stored Data" style="html=1;overflow=block;blockSpacing=1;whiteSpace=wrap;shape=cylinder3;boundedLbl=1;size=15;lid=0;direction=south;fontSize=13;fontColor=#3a414a;align=center;spacing=3.8;strokeColor=#3a414a;strokeOpacity=100;fillOpacity=100;rounded=1;absoluteArcSize=1;arcSize=12;fillColor=#ffe342;strokeWidth=0.8;lucidId=m1XKd9fk_-xt;" parent="1" vertex="1">
          <mxGeometry x="1319" y="508.5" width="120" height="90" as="geometry" />
        </mxCell>
        <mxCell id="UBVaZsS32jMbJEhEhMDU-39" value="Yes" style="edgeStyle=orthogonalEdgeStyle;rounded=0;orthogonalLoop=1;jettySize=auto;html=1;strokeColor=#009900;" parent="1" source="hV1PRbwUxpesttEf0i1S-56" target="19tO0s0q1XUuuVXS7n7F-24" edge="1">
          <mxGeometry relative="1" as="geometry">
            <Array as="points">
              <mxPoint x="734" y="714" />
            </Array>
          </mxGeometry>
        </mxCell>
        <mxCell id="hV1PRbwUxpesttEf0i1S-56" value="Avail Package" style="html=1;overflow=block;blockSpacing=1;whiteSpace=wrap;rhombus;fontSize=6.8;fontColor=#3a414a;fontStyle=1;align=center;spacing=3.8;verticalAlign=middle;strokeColor=#3a414a;strokeOpacity=100;fillOpacity=100;rounded=1;absoluteArcSize=1;arcSize=12;fillColor=#F4D9FF;strokeWidth=0.8;lucidId=99XK4ZoQ0pPP;" parent="1" vertex="1">
          <mxGeometry x="693" y="764" width="81" height="60" as="geometry" />
        </mxCell>
        <mxCell id="hV1PRbwUxpesttEf0i1S-59" value="" style="html=1;jettySize=18;whiteSpace=wrap;fontSize=13;strokeColor=#3a414a;strokeOpacity=100;strokeWidth=0.8;rounded=1;arcSize=24;edgeStyle=orthogonalEdgeStyle;startArrow=none;endArrow=block;endFill=1;entryX=0.033;entryY=0.5;entryPerimeter=0;lucidId=g_XKNdPtYZjO;" parent="1" target="hV1PRbwUxpesttEf0i1S-56" edge="1">
          <mxGeometry width="100" height="100" relative="1" as="geometry">
            <Array as="points">
              <mxPoint x="576" y="794" />
            </Array>
            <mxPoint x="576" y="717" as="sourcePoint" />
          </mxGeometry>
        </mxCell>
        <mxCell id="hV1PRbwUxpesttEf0i1S-71" value="Logout" style="html=1;overflow=block;blockSpacing=1;whiteSpace=wrap;fontSize=13.5;fontColor=#3a414a;fontStyle=1;align=center;spacing=9;strokeColor=#3a414a;strokeOpacity=100;fillOpacity=0;rounded=1;absoluteArcSize=1;arcSize=12;fillColor=#000000;strokeWidth=1.5;lucidId=NuYKs8nb.MXf;" parent="1" vertex="1">
          <mxGeometry x="471" y="908" width="81" height="60" as="geometry" />
        </mxCell>
        <mxCell id="hV1PRbwUxpesttEf0i1S-72" value="" style="html=1;jettySize=18;whiteSpace=wrap;fontSize=13;strokeColor=#3a414a;strokeOpacity=100;strokeWidth=0.8;rounded=1;arcSize=24;edgeStyle=orthogonalEdgeStyle;startArrow=none;endArrow=block;endFill=1;exitX=-0.005;exitY=0.5;exitPerimeter=0;entryX=0.5;entryY=-0.012;entryPerimeter=0;lucidId=lvYKc-A2rKOa;" parent="1" source="hV1PRbwUxpesttEf0i1S-23" target="hV1PRbwUxpesttEf0i1S-71" edge="1">
          <mxGeometry width="100" height="100" relative="1" as="geometry">
            <Array as="points" />
          </mxGeometry>
        </mxCell>
        <mxCell id="UBVaZsS32jMbJEhEhMDU-72" style="edgeStyle=orthogonalEdgeStyle;rounded=0;orthogonalLoop=1;jettySize=auto;html=1;entryX=0;entryY=0.5;entryDx=0;entryDy=0;fontStyle=1" parent="1" source="hV1PRbwUxpesttEf0i1S-73" target="UBVaZsS32jMbJEhEhMDU-50" edge="1">
          <mxGeometry relative="1" as="geometry">
            <Array as="points">
              <mxPoint x="833" y="846" />
              <mxPoint x="928" y="846" />
              <mxPoint x="928" y="878" />
            </Array>
          </mxGeometry>
        </mxCell>
        <mxCell id="UBVaZsS32jMbJEhEhMDU-73" style="edgeStyle=orthogonalEdgeStyle;rounded=0;orthogonalLoop=1;jettySize=auto;html=1;entryX=0;entryY=0.5;entryDx=0;entryDy=0;fontStyle=1" parent="1" source="hV1PRbwUxpesttEf0i1S-73" target="UBVaZsS32jMbJEhEhMDU-49" edge="1">
          <mxGeometry relative="1" as="geometry">
            <Array as="points">
              <mxPoint x="833" y="848" />
            </Array>
          </mxGeometry>
        </mxCell>
        <mxCell id="UBVaZsS32jMbJEhEhMDU-74" style="edgeStyle=orthogonalEdgeStyle;rounded=0;orthogonalLoop=1;jettySize=auto;html=1;entryX=0;entryY=0.5;entryDx=0;entryDy=0;exitX=1;exitY=0.5;exitDx=0;exitDy=0;exitPerimeter=0;fontStyle=1" parent="1" source="hV1PRbwUxpesttEf0i1S-73" target="UBVaZsS32jMbJEhEhMDU-48" edge="1">
          <mxGeometry relative="1" as="geometry">
            <Array as="points">
              <mxPoint x="833" y="880" />
              <mxPoint x="833" y="847" />
              <mxPoint x="928" y="847" />
              <mxPoint x="928" y="818" />
            </Array>
          </mxGeometry>
        </mxCell>
        <mxCell id="hV1PRbwUxpesttEf0i1S-73" value="View Package&#xa;50%" style="html=1;overflow=block;blockSpacing=1;whiteSpace=wrap;shape=display;fontSize=8.5;fontColor=#3a414a;fontStyle=1;align=center;spacing=3.8;strokeColor=#3a414a;strokeOpacity=100;fillOpacity=100;rounded=1;absoluteArcSize=1;arcSize=12;fillColor=#f4d9ff;strokeWidth=0.8;lucidId=WZYKuGhbtE1-;" parent="1" vertex="1">
          <mxGeometry x="793" y="851" width="81" height="58" as="geometry" />
        </mxCell>
        <mxCell id="hV1PRbwUxpesttEf0i1S-78" value="" style="html=1;jettySize=18;whiteSpace=wrap;fontSize=13;strokeColor=#990000;strokeOpacity=100;strokeWidth=0.8;rounded=1;arcSize=24;edgeStyle=orthogonalEdgeStyle;startArrow=none;endArrow=block;endFill=1;exitX=0.5;exitY=0.973;exitPerimeter=0;lucidId=M2YK8gkzSVB3;entryX=0;entryY=0.5;entryDx=0;entryDy=0;entryPerimeter=0;" parent="1" source="hV1PRbwUxpesttEf0i1S-56" target="hV1PRbwUxpesttEf0i1S-73" edge="1">
          <mxGeometry width="100" height="100" relative="1" as="geometry">
            <Array as="points">
              <mxPoint x="733" y="880" />
            </Array>
            <mxPoint x="762" y="902" as="targetPoint" />
          </mxGeometry>
        </mxCell>
        <mxCell id="hV1PRbwUxpesttEf0i1S-79" value="No" style="text;html=1;resizable=0;labelBackgroundColor=default;align=center;verticalAlign=middle;fontColor=#3a414a;fontSize=8.5;" parent="hV1PRbwUxpesttEf0i1S-78" vertex="1">
          <mxGeometry x="-0.349705683686403" relative="1" as="geometry" />
        </mxCell>
        <mxCell id="UBVaZsS32jMbJEhEhMDU-70" style="edgeStyle=orthogonalEdgeStyle;rounded=0;orthogonalLoop=1;jettySize=auto;html=1;entryX=0.017;entryY=0.128;entryDx=0;entryDy=0;entryPerimeter=0;" parent="1" source="hV1PRbwUxpesttEf0i1S-80" target="UBVaZsS32jMbJEhEhMDU-47" edge="1">
          <mxGeometry relative="1" as="geometry" />
        </mxCell>
        <mxCell id="hV1PRbwUxpesttEf0i1S-80" value="View Package&lt;br&gt;100%" style="html=1;overflow=block;blockSpacing=1;whiteSpace=wrap;shape=display;fontSize=8.5;fontColor=#3a414a;fontStyle=1;align=center;spacing=3.8;strokeColor=#3a414a;strokeOpacity=100;fillOpacity=100;rounded=1;absoluteArcSize=1;arcSize=12;fillColor=#f4d9ff;strokeWidth=0.8;lucidId=z4YK4ux.gA7j;" parent="1" vertex="1">
          <mxGeometry x="793" y="766" width="81" height="58" as="geometry" />
        </mxCell>
        <mxCell id="hV1PRbwUxpesttEf0i1S-81" value="" style="html=1;overflow=block;blockSpacing=1;whiteSpace=wrap;fontSize=13;spacing=0;strokeColor=#dfe3e8;strokeOpacity=100;fillOpacity=100;rounded=1;absoluteArcSize=1;arcSize=12;fillColor=#ffffff;strokeWidth=1.5;lucidId=b9lNZSdE-.BZ;" parent="1" vertex="1">
          <mxGeometry x="75" y="49" width="156" height="144" as="geometry" />
        </mxCell>
        <mxCell id="hV1PRbwUxpesttEf0i1S-82" value="" style="ellipse;whiteSpace=wrap;html=1;aspect=fixed;fillColor=#009900;" parent="1" vertex="1">
          <mxGeometry x="96" y="98" width="15" height="15" as="geometry" />
        </mxCell>
        <mxCell id="hV1PRbwUxpesttEf0i1S-83" value="" style="ellipse;whiteSpace=wrap;html=1;aspect=fixed;fillColor=#990000;" parent="1" vertex="1">
          <mxGeometry x="96" y="122" width="15" height="15" as="geometry" />
        </mxCell>
        <mxCell id="hV1PRbwUxpesttEf0i1S-84" value="" style="ellipse;whiteSpace=wrap;html=1;aspect=fixed;fillColor=#D7FAF5;" parent="1" vertex="1">
          <mxGeometry x="96" y="145" width="15" height="15" as="geometry" />
        </mxCell>
        <mxCell id="hV1PRbwUxpesttEf0i1S-85" value="" style="ellipse;whiteSpace=wrap;html=1;aspect=fixed;fillColor=#F4D9FF;" parent="1" vertex="1">
          <mxGeometry x="96" y="168" width="15" height="15" as="geometry" />
        </mxCell>
        <mxCell id="hV1PRbwUxpesttEf0i1S-87" value="&lt;b&gt;Diagram Key&lt;/b&gt;" style="text;html=1;strokeColor=none;fillColor=none;align=center;verticalAlign=middle;whiteSpace=wrap;rounded=0;" parent="1" vertex="1">
          <mxGeometry x="103" y="62" width="81" height="30" as="geometry" />
        </mxCell>
        <mxCell id="hV1PRbwUxpesttEf0i1S-90" value="Yes" style="text;html=1;strokeColor=none;fillColor=none;align=center;verticalAlign=middle;whiteSpace=wrap;rounded=0;" parent="1" vertex="1">
          <mxGeometry x="124.5" y="93.25" width="57" height="24.5" as="geometry" />
        </mxCell>
        <mxCell id="hV1PRbwUxpesttEf0i1S-91" value="No" style="text;html=1;strokeColor=none;fillColor=none;align=center;verticalAlign=middle;whiteSpace=wrap;rounded=0;" parent="1" vertex="1">
          <mxGeometry x="124.5" y="117.75" width="57" height="24.5" as="geometry" />
        </mxCell>
        <mxCell id="hV1PRbwUxpesttEf0i1S-92" value="Teacher" style="text;html=1;strokeColor=none;fillColor=none;align=center;verticalAlign=middle;whiteSpace=wrap;rounded=0;" parent="1" vertex="1">
          <mxGeometry x="135" y="140.25" width="57" height="24.5" as="geometry" />
        </mxCell>
        <mxCell id="hV1PRbwUxpesttEf0i1S-93" value="Customers" style="text;html=1;strokeColor=none;fillColor=none;align=center;verticalAlign=middle;whiteSpace=wrap;rounded=0;" parent="1" vertex="1">
          <mxGeometry x="143" y="163.25" width="57" height="24.5" as="geometry" />
        </mxCell>
        <mxCell id="hV1PRbwUxpesttEf0i1S-118" style="edgeStyle=orthogonalEdgeStyle;rounded=0;orthogonalLoop=1;jettySize=auto;html=1;entryX=0.5;entryY=1;entryDx=0;entryDy=0;" parent="1" source="hV1PRbwUxpesttEf0i1S-17" target="hV1PRbwUxpesttEf0i1S-117" edge="1">
          <mxGeometry relative="1" as="geometry">
            <Array as="points">
              <mxPoint x="508" y="400" />
            </Array>
          </mxGeometry>
        </mxCell>
        <mxCell id="hV1PRbwUxpesttEf0i1S-117" value="Logout" style="html=1;overflow=block;blockSpacing=1;whiteSpace=wrap;fontSize=13.5;fontColor=#3a414a;fontStyle=1;align=center;spacing=9;strokeColor=#3a414a;strokeOpacity=100;fillOpacity=0;rounded=1;absoluteArcSize=1;arcSize=12;fillColor=#000000;strokeWidth=1.5;lucidId=NuYKs8nb.MXf;" parent="1" vertex="1">
          <mxGeometry x="467" y="168" width="81" height="60" as="geometry" />
        </mxCell>
        <mxCell id="UBVaZsS32jMbJEhEhMDU-42" value="Yes" style="edgeStyle=orthogonalEdgeStyle;rounded=0;orthogonalLoop=1;jettySize=auto;html=1;strokeColor=#009900;entryX=0.5;entryY=1;entryDx=0;entryDy=0;entryPerimeter=0;" parent="1" source="19tO0s0q1XUuuVXS7n7F-8" target="hV1PRbwUxpesttEf0i1S-37" edge="1">
          <mxGeometry relative="1" as="geometry">
            <mxPoint x="1357.842105263158" y="645.5263157894738" as="targetPoint" />
          </mxGeometry>
        </mxCell>
        <mxCell id="19tO0s0q1XUuuVXS7n7F-8" value="Submit" style="html=1;overflow=block;blockSpacing=1;whiteSpace=wrap;rhombus;fontSize=6.8;fontColor=#3a414a;fontStyle=1;align=center;spacing=3.8;verticalAlign=middle;strokeColor=#3a414a;strokeOpacity=100;fillOpacity=100;rounded=1;absoluteArcSize=1;arcSize=12;fillColor=#F4D9FF;strokeWidth=0.8;lucidId=jRXKOWMfbOe8;" parent="1" vertex="1">
          <mxGeometry x="1298" y="684" width="81" height="60" as="geometry" />
        </mxCell>
        <mxCell id="UBVaZsS32jMbJEhEhMDU-75" value="&lt;font style=&quot;vertical-align: inherit;&quot;&gt;&lt;font style=&quot;vertical-align: inherit;&quot;&gt;Yes&lt;/font&gt;&lt;/font&gt;" style="edgeStyle=orthogonalEdgeStyle;rounded=0;orthogonalLoop=1;jettySize=auto;html=1;entryX=1.037;entryY=0.109;entryDx=0;entryDy=0;entryPerimeter=0;strokeColor=#009900;" parent="1" source="19tO0s0q1XUuuVXS7n7F-9" target="UBVaZsS32jMbJEhEhMDU-47" edge="1">
          <mxGeometry relative="1" as="geometry">
            <Array as="points">
              <mxPoint x="1116" y="833" />
              <mxPoint x="1116" y="786" />
            </Array>
          </mxGeometry>
        </mxCell>
        <mxCell id="19tO0s0q1XUuuVXS7n7F-9" value="Package Data" style="html=1;overflow=block;blockSpacing=1;whiteSpace=wrap;shape=parallelogram;perimeter=parallelogramPerimeter;anchorPointDirection=0;fontSize=8.5;fontColor=#3a414a;align=center;spacing=3.8;strokeColor=#3a414a;strokeOpacity=100;fillOpacity=100;rounded=1;absoluteArcSize=1;arcSize=12;fillColor=#f4d9ff;strokeWidth=0.8;lucidId=7bYKe~NoGvRS;" parent="1" vertex="1">
          <mxGeometry x="1133" y="788.5" width="152.5" height="89" as="geometry" />
        </mxCell>
        <mxCell id="19tO0s0q1XUuuVXS7n7F-17" value="Submit" style="html=1;overflow=block;blockSpacing=1;whiteSpace=wrap;rhombus;fontSize=10.2;fontColor=#3a414a;fontStyle=1;align=center;spacing=3.8;strokeColor=#3a414a;strokeOpacity=100;fillOpacity=0;rounded=1;absoluteArcSize=1;arcSize=12;fillColor=#000000;strokeWidth=0.8;lucidId=TVWK1tCDvfoE;" parent="1" vertex="1">
          <mxGeometry x="841" y="1040" width="81" height="60" as="geometry" />
        </mxCell>
        <mxCell id="UBVaZsS32jMbJEhEhMDU-43" style="edgeStyle=orthogonalEdgeStyle;rounded=0;orthogonalLoop=1;jettySize=auto;html=1;entryX=0;entryY=0.5;entryDx=0;entryDy=0;" parent="1" source="19tO0s0q1XUuuVXS7n7F-24" target="19tO0s0q1XUuuVXS7n7F-8" edge="1">
          <mxGeometry relative="1" as="geometry" />
        </mxCell>
        <mxCell id="UBVaZsS32jMbJEhEhMDU-76" style="edgeStyle=orthogonalEdgeStyle;rounded=0;orthogonalLoop=1;jettySize=auto;html=1;entryX=0;entryY=0;entryDx=36.125;entryDy=0;entryPerimeter=0;" parent="1" source="19tO0s0q1XUuuVXS7n7F-24" target="hV1PRbwUxpesttEf0i1S-80" edge="1">
          <mxGeometry relative="1" as="geometry">
            <Array as="points">
              <mxPoint x="929" y="755" />
              <mxPoint x="829" y="755" />
            </Array>
          </mxGeometry>
        </mxCell>
        <mxCell id="19tO0s0q1XUuuVXS7n7F-24" value="&lt;span style=&quot;font-weight: normal;&quot;&gt;&lt;font style=&quot;font-size: 9px;&quot;&gt;Package Costs&lt;/font&gt;&lt;/span&gt;" style="html=1;overflow=block;blockSpacing=1;whiteSpace=wrap;fontSize=13.5;fontColor=#3a414a;fontStyle=1;align=center;spacing=9;strokeColor=#3a414a;strokeOpacity=100;fillOpacity=100;rounded=1;absoluteArcSize=1;arcSize=12;fillColor=#F4D9FF;strokeWidth=0.8;lucidId=XYWKg35ZBaua;" parent="1" vertex="1">
          <mxGeometry x="887.5" y="687" width="77" height="54" as="geometry" />
        </mxCell>
        <mxCell id="19tO0s0q1XUuuVXS7n7F-37" value="Yes" style="edgeStyle=orthogonalEdgeStyle;rounded=0;orthogonalLoop=1;jettySize=auto;html=1;entryX=0;entryY=0.5;entryDx=0;entryDy=0;strokeColor=#009900;" parent="1" source="19tO0s0q1XUuuVXS7n7F-30" target="19tO0s0q1XUuuVXS7n7F-36" edge="1">
          <mxGeometry relative="1" as="geometry" />
        </mxCell>
        <mxCell id="19tO0s0q1XUuuVXS7n7F-30" value="Book a live teacher" style="html=1;overflow=block;blockSpacing=1;whiteSpace=wrap;rhombus;fontSize=6.8;fontColor=#3a414a;fontStyle=1;align=center;spacing=3.8;verticalAlign=middle;strokeColor=#3a414a;strokeOpacity=100;fillOpacity=100;rounded=1;absoluteArcSize=1;arcSize=12;fillColor=#f4d9ff;strokeWidth=0.8;lucidId=99XKC0GL3~E4;" parent="1" vertex="1">
          <mxGeometry x="693" y="949" width="81" height="60" as="geometry" />
        </mxCell>
        <mxCell id="19tO0s0q1XUuuVXS7n7F-36" value="&lt;span style=&quot;font-weight: normal;&quot;&gt;&lt;font style=&quot;font-size: 9px;&quot;&gt;Choose Available Schedule&lt;/font&gt;&lt;/span&gt;" style="html=1;overflow=block;blockSpacing=1;whiteSpace=wrap;fontSize=13.5;fontColor=#3a414a;fontStyle=1;align=center;spacing=9;strokeColor=#3a414a;strokeOpacity=100;fillOpacity=100;rounded=1;absoluteArcSize=1;arcSize=12;fillColor=#f4d9ff;strokeWidth=0.8;lucidId=XYWKg35ZBaua;" parent="1" vertex="1">
          <mxGeometry x="849.5" y="948" width="77" height="62" as="geometry" />
        </mxCell>
        <mxCell id="19tO0s0q1XUuuVXS7n7F-68" value="User Guides&lt;br&gt;Data" style="html=1;overflow=block;blockSpacing=1;whiteSpace=wrap;shape=parallelogram;perimeter=parallelogramPerimeter;anchorPointDirection=0;fontSize=8.5;fontColor=#3a414a;align=center;spacing=3.8;strokeColor=#3a414a;strokeOpacity=100;fillOpacity=100;rounded=1;absoluteArcSize=1;arcSize=12;fillColor=#f4d9ff;strokeWidth=0.8;lucidId=5dYKIkK0RET3;" parent="1" vertex="1">
          <mxGeometry x="1176" y="632" width="84" height="60" as="geometry" />
        </mxCell>
        <mxCell id="19tO0s0q1XUuuVXS7n7F-74" style="edgeStyle=orthogonalEdgeStyle;rounded=0;orthogonalLoop=1;jettySize=auto;html=1;strokeColor=#009900;" parent="1" source="19tO0s0q1XUuuVXS7n7F-71" target="19tO0s0q1XUuuVXS7n7F-68" edge="1">
          <mxGeometry relative="1" as="geometry" />
        </mxCell>
        <mxCell id="19tO0s0q1XUuuVXS7n7F-75" value="Yes" style="edgeLabel;html=1;align=center;verticalAlign=middle;resizable=0;points=[];" parent="19tO0s0q1XUuuVXS7n7F-74" vertex="1" connectable="0">
          <mxGeometry x="-0.1023" y="-2" relative="1" as="geometry">
            <mxPoint as="offset" />
          </mxGeometry>
        </mxCell>
        <mxCell id="19tO0s0q1XUuuVXS7n7F-71" value="&lt;font style=&quot;vertical-align: inherit;&quot;&gt;&lt;font style=&quot;vertical-align: inherit;&quot;&gt;&lt;font style=&quot;vertical-align: inherit;&quot;&gt;&lt;font style=&quot;vertical-align: inherit;&quot;&gt;View Customers&lt;br&gt;Guides&lt;/font&gt;&lt;/font&gt;&lt;/font&gt;&lt;/font&gt;" style="html=1;overflow=block;blockSpacing=1;whiteSpace=wrap;rhombus;fontSize=6.8;fontColor=#3a414a;fontStyle=1;align=center;spacing=3.8;verticalAlign=middle;strokeColor=#3a414a;strokeOpacity=100;fillOpacity=100;rounded=1;absoluteArcSize=1;arcSize=12;fillColor=#f4d9ff;strokeWidth=0.8;lucidId=99XKC0GL3~E4;" parent="1" vertex="1">
          <mxGeometry x="693" y="632" width="81" height="60" as="geometry" />
        </mxCell>
        <mxCell id="19tO0s0q1XUuuVXS7n7F-79" value="Yes" style="edgeStyle=orthogonalEdgeStyle;rounded=0;orthogonalLoop=1;jettySize=auto;html=1;strokeColor=#009900;" parent="1" source="19tO0s0q1XUuuVXS7n7F-77" target="19tO0s0q1XUuuVXS7n7F-78" edge="1">
          <mxGeometry relative="1" as="geometry" />
        </mxCell>
        <mxCell id="19tO0s0q1XUuuVXS7n7F-77" value="&lt;span style=&quot;font-weight: normal;&quot;&gt;View Teacher &lt;br&gt;Guides&lt;/span&gt;" style="html=1;overflow=block;blockSpacing=1;whiteSpace=wrap;rhombus;fontSize=6.8;fontColor=#3a414a;fontStyle=1;align=center;spacing=3.8;verticalAlign=middle;strokeColor=#3a414a;strokeOpacity=100;fillOpacity=100;rounded=1;absoluteArcSize=1;arcSize=12;fillColor=#D7FAF5;strokeWidth=0.8;lucidId=99XKC0GL3~E4;" parent="1" vertex="1">
          <mxGeometry x="687.5" y="408" width="81" height="60" as="geometry" />
        </mxCell>
        <mxCell id="19tO0s0q1XUuuVXS7n7F-78" value="User Guides&lt;br&gt;Data" style="html=1;overflow=block;blockSpacing=1;whiteSpace=wrap;shape=parallelogram;perimeter=parallelogramPerimeter;anchorPointDirection=0;fontSize=8.5;fontColor=#3a414a;align=center;spacing=3.8;strokeColor=#3a414a;strokeOpacity=100;fillOpacity=100;rounded=1;absoluteArcSize=1;arcSize=12;fillColor=#D7FAF5;strokeWidth=0.8;lucidId=5dYKIkK0RET3;" parent="1" vertex="1">
          <mxGeometry x="1176" y="408" width="84" height="60" as="geometry" />
        </mxCell>
        <mxCell id="UBVaZsS32jMbJEhEhMDU-5" value="Yes" style="edgeStyle=orthogonalEdgeStyle;rounded=0;orthogonalLoop=1;jettySize=auto;html=1;entryX=0.016;entryY=0.139;entryDx=0;entryDy=0;entryPerimeter=0;strokeColor=#009900;" parent="1" source="UBVaZsS32jMbJEhEhMDU-1" target="UBVaZsS32jMbJEhEhMDU-4" edge="1">
          <mxGeometry relative="1" as="geometry" />
        </mxCell>
        <mxCell id="UBVaZsS32jMbJEhEhMDU-1" value="&lt;font style=&quot;font-size: 9px;&quot;&gt;Teach Live&lt;/font&gt;" style="html=1;overflow=block;blockSpacing=1;whiteSpace=wrap;rhombus;fontSize=6.8;fontColor=#3a414a;fontStyle=0;align=center;spacing=3.8;verticalAlign=middle;strokeColor=#3a414a;strokeOpacity=100;fillOpacity=100;rounded=1;absoluteArcSize=1;arcSize=12;fillColor=#d7faf5;strokeWidth=0.8;lucidId=IGXKoHelr1hM;" parent="1" vertex="1">
          <mxGeometry x="686" y="169" width="81" height="60" as="geometry" />
        </mxCell>
        <mxCell id="UBVaZsS32jMbJEhEhMDU-26" style="edgeStyle=orthogonalEdgeStyle;rounded=0;orthogonalLoop=1;jettySize=auto;html=1;strokeColor=#009900;entryX=0;entryY=0.5;entryDx=0;entryDy=0;" parent="1" target="hV1PRbwUxpesttEf0i1S-33" edge="1">
          <mxGeometry relative="1" as="geometry">
            <mxPoint x="995" y="371" as="sourcePoint" />
            <mxPoint x="1072" y="402" as="targetPoint" />
            <Array as="points">
              <mxPoint x="995" y="370" />
              <mxPoint x="996" y="370" />
              <mxPoint x="996" y="400" />
            </Array>
          </mxGeometry>
        </mxCell>
        <mxCell id="UBVaZsS32jMbJEhEhMDU-7" style="edgeStyle=orthogonalEdgeStyle;rounded=0;orthogonalLoop=1;jettySize=auto;html=1;entryX=0.5;entryY=0;entryDx=0;entryDy=0;" parent="1" source="UBVaZsS32jMbJEhEhMDU-3" target="hV1PRbwUxpesttEf0i1S-33" edge="1">
          <mxGeometry relative="1" as="geometry" />
        </mxCell>
        <mxCell id="UBVaZsS32jMbJEhEhMDU-3" value="&lt;font style=&quot;font-size: 10px;&quot;&gt;&lt;b style=&quot;&quot;&gt;Set Schedule&lt;/b&gt;&lt;/font&gt;" style="html=1;overflow=block;blockSpacing=1;swimlane;childLayout=stackLayout;horizontal=1;horizontalStack=0;resizeParent=1;resizeParentMax=0;resizeLast=0;collapsible=0;fontStyle=0;marginBottom=0;swimlaneFillColor=#d7faf5;startSize=28;whiteSpace=wrap;fontSize=13;align=center;spacing=0;strokeColor=#333333;strokeOpacity=100;fillOpacity=100;fillColor=#d7faf5;strokeWidth=1.5;" parent="1" vertex="1">
          <mxGeometry x="847" y="165" width="75" height="64" as="geometry" />
        </mxCell>
        <mxCell id="UBVaZsS32jMbJEhEhMDU-4" value="&lt;font style=&quot;font-size: 8px;&quot;&gt;-Subject&lt;br&gt;-DateTime&lt;/font&gt;" style="part=1;html=1;resizeHeight=0;strokeColor=none;fillColor=none;align=left;verticalAlign=middle;spacingLeft=4;spacingRight=4;overflow=hidden;rotatable=0;points=[[0,0.5],[1,0.5]];portConstraint=eastwest;swimlaneFillColor=#d7faf5;strokeOpacity=100;fillOpacity=100;whiteSpace=wrap;fontSize=13;fontStyle=0" parent="UBVaZsS32jMbJEhEhMDU-3" vertex="1">
          <mxGeometry y="28" width="75" height="36" as="geometry" />
        </mxCell>
        <mxCell id="hV1PRbwUxpesttEf0i1S-29" value="&lt;span&gt;&lt;b&gt;&lt;font style=&quot;font-size: 10px;&quot;&gt;Quiz&lt;/font&gt;&lt;/b&gt;&lt;/span&gt;" style="html=1;overflow=block;blockSpacing=1;swimlane;childLayout=stackLayout;horizontal=1;horizontalStack=0;resizeParent=1;resizeParentMax=0;resizeLast=0;collapsible=0;fontStyle=0;marginBottom=0;swimlaneFillColor=#d7faf5;startSize=28;whiteSpace=wrap;fontSize=13;align=center;spacing=0;strokeColor=#333333;strokeOpacity=100;fillOpacity=100;fillColor=#d7faf5;strokeWidth=1.5;" parent="1" vertex="1">
          <mxGeometry x="911.5" y="266" width="75" height="86" as="geometry" />
        </mxCell>
        <mxCell id="hV1PRbwUxpesttEf0i1S-30" value="&lt;font style=&quot;&quot;&gt;&lt;font style=&quot;font-size: 8px;&quot;&gt;-ID&lt;br&gt;-Title&lt;br&gt;-Items&lt;/font&gt;&lt;br&gt;&lt;/font&gt;" style="part=1;html=1;resizeHeight=0;strokeColor=none;fillColor=none;align=left;verticalAlign=middle;spacingLeft=4;spacingRight=4;overflow=hidden;rotatable=0;points=[[0,0.5],[1,0.5]];portConstraint=eastwest;swimlaneFillColor=#d7faf5;strokeOpacity=100;fillOpacity=100;whiteSpace=wrap;fontSize=13;fontStyle=0" parent="hV1PRbwUxpesttEf0i1S-29" vertex="1">
          <mxGeometry y="28" width="75" height="58" as="geometry" />
        </mxCell>
        <mxCell id="UBVaZsS32jMbJEhEhMDU-22" style="edgeStyle=orthogonalEdgeStyle;rounded=0;orthogonalLoop=1;jettySize=auto;html=1;entryX=0.53;entryY=0.983;entryDx=0;entryDy=0;entryPerimeter=0;" parent="1" edge="1">
          <mxGeometry relative="1" as="geometry">
            <mxPoint x="1052.5" y="352" as="targetPoint" />
            <mxPoint x="951.5" y="353" as="sourcePoint" />
            <Array as="points">
              <mxPoint x="951.5" y="369" />
              <mxPoint x="1052.5" y="369" />
            </Array>
          </mxGeometry>
        </mxCell>
        <mxCell id="UBVaZsS32jMbJEhEhMDU-24" style="edgeStyle=orthogonalEdgeStyle;rounded=0;orthogonalLoop=1;jettySize=auto;html=1;entryX=0.53;entryY=0.983;entryDx=0;entryDy=0;entryPerimeter=0;" parent="1" edge="1">
          <mxGeometry relative="1" as="geometry">
            <mxPoint x="951.5" y="353" as="targetPoint" />
            <mxPoint x="850.5" y="354" as="sourcePoint" />
            <Array as="points">
              <mxPoint x="850.5" y="370" />
              <mxPoint x="951.5" y="370" />
            </Array>
          </mxGeometry>
        </mxCell>
        <mxCell id="UBVaZsS32jMbJEhEhMDU-25" style="edgeStyle=orthogonalEdgeStyle;rounded=0;orthogonalLoop=1;jettySize=auto;html=1;entryX=0.53;entryY=0.983;entryDx=0;entryDy=0;entryPerimeter=0;" parent="1" edge="1">
          <mxGeometry relative="1" as="geometry">
            <mxPoint x="851.5" y="353" as="targetPoint" />
            <mxPoint x="952.5" y="352" as="sourcePoint" />
            <Array as="points">
              <mxPoint x="952.5" y="369" />
              <mxPoint x="851.5" y="369" />
            </Array>
          </mxGeometry>
        </mxCell>
        <mxCell id="UBVaZsS32jMbJEhEhMDU-51" value="&lt;span&gt;&lt;b&gt;&lt;font style=&quot;font-size: 10px;&quot;&gt;&lt;font style=&quot;vertical-align: inherit;&quot;&gt;&lt;font style=&quot;vertical-align: inherit;&quot;&gt;Subjects&lt;/font&gt;&lt;/font&gt;&lt;/font&gt;&lt;/b&gt;&lt;/span&gt;" style="html=1;overflow=block;blockSpacing=1;swimlane;childLayout=stackLayout;horizontal=1;horizontalStack=0;resizeParent=1;resizeParentMax=0;resizeLast=0;collapsible=0;fontStyle=0;marginBottom=0;swimlaneFillColor=#d7faf5;startSize=28;whiteSpace=wrap;fontSize=13;align=center;spacing=0;strokeColor=#333333;strokeOpacity=100;fillOpacity=100;fillColor=#d7faf5;strokeWidth=1.5;" parent="1" vertex="1">
          <mxGeometry x="1106" y="266" width="75" height="89" as="geometry" />
        </mxCell>
        <mxCell id="UBVaZsS32jMbJEhEhMDU-52" value="&lt;font style=&quot;font-size: 8px;&quot;&gt;&lt;font style=&quot;vertical-align: inherit;&quot;&gt;&lt;font style=&quot;vertical-align: inherit;&quot;&gt;-ID&lt;/font&gt;&lt;/font&gt;&lt;br&gt;&lt;font style=&quot;vertical-align: inherit;&quot;&gt;&lt;font style=&quot;vertical-align: inherit;&quot;&gt;-Name&lt;/font&gt;&lt;/font&gt;&lt;br&gt;&lt;font style=&quot;vertical-align: inherit;&quot;&gt;&lt;font style=&quot;vertical-align: inherit;&quot;&gt;-Description&lt;/font&gt;&lt;/font&gt;&lt;/font&gt;" style="part=1;html=1;resizeHeight=0;strokeColor=none;fillColor=none;align=left;verticalAlign=middle;spacingLeft=4;spacingRight=4;overflow=hidden;rotatable=0;points=[[0,0.5],[1,0.5]];portConstraint=eastwest;swimlaneFillColor=#d7faf5;strokeOpacity=100;fillOpacity=100;whiteSpace=wrap;fontSize=13;fontStyle=0" parent="UBVaZsS32jMbJEhEhMDU-51" vertex="1">
          <mxGeometry y="28" width="75" height="61" as="geometry" />
        </mxCell>
        <mxCell id="UBVaZsS32jMbJEhEhMDU-47" value="&lt;font style=&quot;vertical-align: inherit;&quot;&gt;&lt;font style=&quot;vertical-align: inherit;&quot;&gt;&lt;font style=&quot;vertical-align: inherit;&quot;&gt;&lt;font style=&quot;vertical-align: inherit;&quot;&gt;&lt;font style=&quot;vertical-align: inherit;&quot;&gt;&lt;font style=&quot;vertical-align: inherit;&quot;&gt;&lt;b&gt;&lt;font style=&quot;vertical-align: inherit;&quot;&gt;&lt;font style=&quot;vertical-align: inherit;&quot;&gt;Packages&lt;/font&gt;&lt;/font&gt;&lt;/b&gt;&lt;/font&gt;&lt;/font&gt;&lt;/font&gt;&lt;/font&gt;&lt;/font&gt;&lt;/font&gt;" style="swimlane;fontStyle=0;childLayout=stackLayout;horizontal=1;startSize=30;horizontalStack=0;resizeParent=1;resizeParentMax=0;resizeLast=0;collapsible=1;marginBottom=0;whiteSpace=wrap;html=1;fillColor=#F4D9FF;" parent="1" vertex="1">
          <mxGeometry x="981.5" y="773" width="102" height="120" as="geometry">
            <mxRectangle x="913" y="775" width="54" height="30" as="alternateBounds" />
          </mxGeometry>
        </mxCell>
        <mxCell id="UBVaZsS32jMbJEhEhMDU-48" value="&lt;font style=&quot;vertical-align: inherit;&quot;&gt;&lt;font style=&quot;vertical-align: inherit;&quot;&gt;- Modules&lt;/font&gt;&lt;/font&gt;" style="text;strokeColor=none;fillColor=#F4D9FF;align=left;verticalAlign=middle;spacingLeft=4;spacingRight=4;overflow=hidden;points=[[0,0.5],[1,0.5]];portConstraint=eastwest;rotatable=0;whiteSpace=wrap;html=1;" parent="UBVaZsS32jMbJEhEhMDU-47" vertex="1">
          <mxGeometry y="30" width="102" height="30" as="geometry" />
        </mxCell>
        <mxCell id="UBVaZsS32jMbJEhEhMDU-49" value="&lt;font style=&quot;vertical-align: inherit;&quot;&gt;&lt;font style=&quot;vertical-align: inherit;&quot;&gt;- Chapters&lt;/font&gt;&lt;/font&gt;" style="text;strokeColor=none;fillColor=#F4D9FF;align=left;verticalAlign=middle;spacingLeft=4;spacingRight=4;overflow=hidden;points=[[0,0.5],[1,0.5]];portConstraint=eastwest;rotatable=0;whiteSpace=wrap;html=1;" parent="UBVaZsS32jMbJEhEhMDU-47" vertex="1">
          <mxGeometry y="60" width="102" height="30" as="geometry" />
        </mxCell>
        <mxCell id="UBVaZsS32jMbJEhEhMDU-50" value="- Subjects" style="text;strokeColor=none;fillColor=#F4D9FF;align=left;verticalAlign=middle;spacingLeft=4;spacingRight=4;overflow=hidden;points=[[0,0.5],[1,0.5]];portConstraint=eastwest;rotatable=0;whiteSpace=wrap;html=1;" parent="UBVaZsS32jMbJEhEhMDU-47" vertex="1">
          <mxGeometry y="90" width="102" height="30" as="geometry" />
        </mxCell>
        <mxCell id="UBVaZsS32jMbJEhEhMDU-57" style="edgeStyle=orthogonalEdgeStyle;rounded=0;orthogonalLoop=1;jettySize=auto;html=1;entryX=0.53;entryY=0.983;entryDx=0;entryDy=0;entryPerimeter=0;" parent="1" edge="1">
          <mxGeometry relative="1" as="geometry">
            <mxPoint x="1154" y="355" as="targetPoint" />
            <mxPoint x="1053" y="356" as="sourcePoint" />
            <Array as="points">
              <mxPoint x="1053" y="370" />
              <mxPoint x="1154" y="370" />
            </Array>
          </mxGeometry>
        </mxCell>
        <mxCell id="UBVaZsS32jMbJEhEhMDU-62" value="User Guides&lt;br&gt;Data" style="html=1;overflow=block;blockSpacing=1;whiteSpace=wrap;shape=parallelogram;perimeter=parallelogramPerimeter;anchorPointDirection=0;fontSize=8.5;fontColor=#3a414a;align=center;spacing=3.8;strokeColor=#3a414a;strokeOpacity=100;fillOpacity=100;rounded=1;absoluteArcSize=1;arcSize=12;fillColor=#D7FAF5;strokeWidth=0.8;lucidId=5dYKIkK0RET3;" parent="1" vertex="1">
          <mxGeometry x="1175" y="408" width="84" height="60" as="geometry" />
        </mxCell>
      </root>
    </mxGraphModel>
  </diagram>
  <diagram id="Ulw-Lfc0ZMPi1H0FI7Lq" name="KTEL Admin Diagram">
    <mxGraphModel dx="2240" dy="1044" grid="0" gridSize="10" guides="1" tooltips="1" connect="1" arrows="1" fold="1" page="1" pageScale="1" pageWidth="850" pageHeight="1100" math="0" shadow="0">
      <root>
        <mxCell id="0" />
        <mxCell id="1" parent="0" />
        <mxCell id="jZZswJj1VfevEvX6RnNG-2" style="edgeStyle=orthogonalEdgeStyle;rounded=0;orthogonalLoop=1;jettySize=auto;html=1;entryX=0.5;entryY=1;entryDx=0;entryDy=0;entryPerimeter=0;strokeColor=#009900;" edge="1" parent="1" source="jZZswJj1VfevEvX6RnNG-76" target="jZZswJj1VfevEvX6RnNG-34">
          <mxGeometry relative="1" as="geometry">
            <Array as="points">
              <mxPoint x="1581" y="824" />
            </Array>
          </mxGeometry>
        </mxCell>
        <mxCell id="jZZswJj1VfevEvX6RnNG-3" value="Yes" style="edgeLabel;html=1;align=center;verticalAlign=middle;resizable=0;points=[];" vertex="1" connectable="0" parent="jZZswJj1VfevEvX6RnNG-2">
          <mxGeometry x="0.4521" relative="1" as="geometry">
            <mxPoint y="1" as="offset" />
          </mxGeometry>
        </mxCell>
        <mxCell id="jZZswJj1VfevEvX6RnNG-4" value="" style="group;dropTarget=0;pointerEvents=0;" vertex="1" parent="1">
          <mxGeometry x="606" y="49" width="640" height="69" as="geometry" />
        </mxCell>
        <UserObject label="KTEL FLOW DIAGRAM" placeholders="1" id="jZZswJj1VfevEvX6RnNG-5">
          <mxCell style="html=1;overflow=block;blockSpacing=1;whiteSpace=wrap;fontSize=23;fontColor=#a9afb8;fontStyle=1;align=center;spacingLeft=7;spacingRight=7;spacingTop=2;spacing=3;strokeOpacity=0;fillOpacity=0;rounded=1;absoluteArcSize=1;arcSize=12;fillColor=#ffffff;strokeWidth=1.5;lucidId=SuaB0mNpY13K;" vertex="1" parent="jZZswJj1VfevEvX6RnNG-4">
            <mxGeometry width="640" height="52" as="geometry" />
          </mxCell>
        </UserObject>
        <mxCell id="jZZswJj1VfevEvX6RnNG-6" value="" style="html=1;jettySize=18;whiteSpace=wrap;fontSize=13;fontFamily=Helvetica;strokeColor=#a9afb8;strokeOpacity=100;strokeWidth=1.5;rounded=0;startArrow=none;endArrow=none;lucidId=SuaBUnwJteK4;" edge="1" parent="jZZswJj1VfevEvX6RnNG-4">
          <mxGeometry width="100" height="100" relative="1" as="geometry">
            <Array as="points" />
            <mxPoint x="191" y="47" as="sourcePoint" />
            <mxPoint x="454" y="47" as="targetPoint" />
          </mxGeometry>
        </mxCell>
        <mxCell id="jZZswJj1VfevEvX6RnNG-7" value="&lt;div style=&quot;display: flex; justify-content: center; text-align: center; align-items: baseline; line-height: 1.25; margin-top: -2px;&quot;&gt;&lt;font color=&quot;#3a414a&quot;&gt;&lt;span style=&quot;font-size: 13.5px;&quot;&gt;&lt;b&gt;Admin&lt;/b&gt;&lt;/span&gt;&lt;/font&gt;&lt;/div&gt;" style="html=1;overflow=block;blockSpacing=1;whiteSpace=wrap;fontSize=13;spacing=9;strokeColor=#3a414a;strokeOpacity=100;fillOpacity=0;rounded=1;absoluteArcSize=1;arcSize=12;fillColor=#FFE599;strokeWidth=0.8;lucidId=HEWKmNeVF82c;" vertex="1" parent="1">
          <mxGeometry x="157" y="460" width="81" height="60" as="geometry" />
        </mxCell>
        <mxCell id="jZZswJj1VfevEvX6RnNG-8" value="" style="html=1;jettySize=18;whiteSpace=wrap;fontSize=13;strokeColor=#4c535d;strokeOpacity=100;strokeWidth=1.5;rounded=1;arcSize=24;edgeStyle=orthogonalEdgeStyle;startArrow=none;endArrow=block;endFill=1;exitX=1.005;exitY=0.5;exitPerimeter=0;entryX=-0.005;entryY=0.5;entryPerimeter=0;lucidId=jGWKvbgWV~2U;" edge="1" parent="1" source="jZZswJj1VfevEvX6RnNG-7" target="jZZswJj1VfevEvX6RnNG-9">
          <mxGeometry width="100" height="100" relative="1" as="geometry">
            <Array as="points" />
          </mxGeometry>
        </mxCell>
        <mxCell id="jZZswJj1VfevEvX6RnNG-9" value="Login" style="html=1;overflow=block;blockSpacing=1;whiteSpace=wrap;shape=process;fontSize=13.5;fontColor=#3a414a;fontStyle=1;align=center;spacing=3.8;strokeColor=#3a414a;strokeOpacity=100;fillOpacity=0;rounded=1;absoluteArcSize=1;arcSize=12;fillColor=#FFE599;strokeWidth=0.8;lucidId=BGWKLJnAHEOR;" vertex="1" parent="1">
          <mxGeometry x="292" y="460" width="81" height="60" as="geometry" />
        </mxCell>
        <mxCell id="jZZswJj1VfevEvX6RnNG-10" value="" style="html=1;jettySize=18;whiteSpace=wrap;fontSize=13;strokeColor=#4c535d;strokeOpacity=100;strokeWidth=1.5;rounded=1;arcSize=24;edgeStyle=orthogonalEdgeStyle;startArrow=none;endArrow=block;endFill=1;exitX=0.218;exitY=1.006;exitPerimeter=0;entryX=0.215;entryY=-0.012;entryPerimeter=0;lucidId=WHWKN7bPr-CG;" edge="1" parent="1" source="jZZswJj1VfevEvX6RnNG-9" target="jZZswJj1VfevEvX6RnNG-12">
          <mxGeometry width="100" height="100" relative="1" as="geometry">
            <Array as="points" />
          </mxGeometry>
        </mxCell>
        <mxCell id="PMWw6-VjNcPRThleCNM6-20" style="edgeStyle=orthogonalEdgeStyle;rounded=0;orthogonalLoop=1;jettySize=auto;html=1;entryX=0;entryY=0.5;entryDx=0;entryDy=0;" edge="1" parent="1" source="jZZswJj1VfevEvX6RnNG-12" target="jZZswJj1VfevEvX6RnNG-76">
          <mxGeometry relative="1" as="geometry">
            <Array as="points">
              <mxPoint x="332" y="823" />
            </Array>
          </mxGeometry>
        </mxCell>
        <mxCell id="jZZswJj1VfevEvX6RnNG-12" value="Register" style="html=1;overflow=block;blockSpacing=1;whiteSpace=wrap;fontSize=13.5;fontColor=#3a414a;fontStyle=1;align=center;spacing=9;strokeColor=#3a414a;strokeOpacity=100;fillOpacity=0;rounded=1;absoluteArcSize=1;arcSize=12;fillColor=#FF36BC;strokeWidth=1.5;lucidId=~HWK11kqJugp;" vertex="1" parent="1">
          <mxGeometry x="292" y="573" width="81" height="60" as="geometry" />
        </mxCell>
        <mxCell id="jZZswJj1VfevEvX6RnNG-13" value="" style="html=1;jettySize=18;whiteSpace=wrap;fontSize=13;strokeColor=#4c535d;strokeOpacity=100;strokeWidth=1.5;rounded=1;arcSize=24;edgeStyle=orthogonalEdgeStyle;startArrow=none;endArrow=block;endFill=1;exitX=0.803;exitY=-0.012;exitPerimeter=0;entryX=0.799;entryY=1.006;entryPerimeter=0;lucidId=XIWKZ2q~gl0U;" edge="1" parent="1" source="jZZswJj1VfevEvX6RnNG-12" target="jZZswJj1VfevEvX6RnNG-9">
          <mxGeometry width="100" height="100" relative="1" as="geometry">
            <Array as="points" />
          </mxGeometry>
        </mxCell>
        <mxCell id="PMWw6-VjNcPRThleCNM6-21" style="edgeStyle=orthogonalEdgeStyle;rounded=0;orthogonalLoop=1;jettySize=auto;html=1;entryX=0.5;entryY=0;entryDx=0;entryDy=0;entryPerimeter=0;" edge="1" parent="1" source="jZZswJj1VfevEvX6RnNG-34" target="maXQ4XvdCrKpiElijYGz-6">
          <mxGeometry relative="1" as="geometry">
            <Array as="points">
              <mxPoint x="1577" y="287" />
            </Array>
          </mxGeometry>
        </mxCell>
        <mxCell id="jZZswJj1VfevEvX6RnNG-34" value="Database" style="html=1;overflow=block;blockSpacing=1;whiteSpace=wrap;shape=cylinder3;size=4;anchorPointDirection=0;boundedLbl=1;fontSize=20.2;fontColor=#3a414a;align=center;spacing=3.8;strokeColor=#3a414a;strokeOpacity=100;fillOpacity=100;rounded=1;absoluteArcSize=1;arcSize=12;fillColor=#fc9432;strokeWidth=0.8;lucidId=GSXKQ_698Z1O;" vertex="1" parent="1">
          <mxGeometry x="1522" y="418.5" width="118" height="147" as="geometry" />
        </mxCell>
        <mxCell id="jZZswJj1VfevEvX6RnNG-50" value="Logout" style="html=1;overflow=block;blockSpacing=1;whiteSpace=wrap;fontSize=13.5;fontColor=#3a414a;fontStyle=1;align=center;spacing=9;strokeColor=#3a414a;strokeOpacity=100;fillOpacity=0;rounded=1;absoluteArcSize=1;arcSize=12;fillColor=#000000;strokeWidth=1.5;lucidId=NuYKs8nb.MXf;" vertex="1" parent="1">
          <mxGeometry x="444.5" y="743" width="81" height="60" as="geometry" />
        </mxCell>
        <mxCell id="jZZswJj1VfevEvX6RnNG-60" value="" style="html=1;overflow=block;blockSpacing=1;whiteSpace=wrap;fontSize=13;spacing=0;strokeColor=#dfe3e8;strokeOpacity=100;fillOpacity=100;rounded=1;absoluteArcSize=1;arcSize=12;fillColor=#ffffff;strokeWidth=1.5;lucidId=b9lNZSdE-.BZ;" vertex="1" parent="1">
          <mxGeometry x="75" y="49" width="141" height="112" as="geometry" />
        </mxCell>
        <mxCell id="jZZswJj1VfevEvX6RnNG-61" value="" style="ellipse;whiteSpace=wrap;html=1;aspect=fixed;fillColor=#009900;" vertex="1" parent="1">
          <mxGeometry x="96" y="98" width="15" height="15" as="geometry" />
        </mxCell>
        <mxCell id="jZZswJj1VfevEvX6RnNG-62" value="" style="ellipse;whiteSpace=wrap;html=1;aspect=fixed;fillColor=#990000;" vertex="1" parent="1">
          <mxGeometry x="96" y="122" width="15" height="15" as="geometry" />
        </mxCell>
        <mxCell id="jZZswJj1VfevEvX6RnNG-65" value="&lt;b&gt;Diagram Key&lt;/b&gt;" style="text;html=1;strokeColor=none;fillColor=none;align=center;verticalAlign=middle;whiteSpace=wrap;rounded=0;" vertex="1" parent="1">
          <mxGeometry x="103" y="62" width="81" height="30" as="geometry" />
        </mxCell>
        <mxCell id="jZZswJj1VfevEvX6RnNG-66" value="Yes" style="text;html=1;strokeColor=none;fillColor=none;align=center;verticalAlign=middle;whiteSpace=wrap;rounded=0;" vertex="1" parent="1">
          <mxGeometry x="124.5" y="93.25" width="57" height="24.5" as="geometry" />
        </mxCell>
        <mxCell id="jZZswJj1VfevEvX6RnNG-67" value="No" style="text;html=1;strokeColor=none;fillColor=none;align=center;verticalAlign=middle;whiteSpace=wrap;rounded=0;" vertex="1" parent="1">
          <mxGeometry x="124.5" y="117.75" width="57" height="24.5" as="geometry" />
        </mxCell>
        <mxCell id="jZZswJj1VfevEvX6RnNG-76" value="Submit" style="html=1;overflow=block;blockSpacing=1;whiteSpace=wrap;rhombus;fontSize=10.2;fontColor=#3a414a;fontStyle=1;align=center;spacing=3.8;strokeColor=#3a414a;strokeOpacity=100;fillOpacity=0;rounded=1;absoluteArcSize=1;arcSize=12;fillColor=#000000;strokeWidth=0.8;lucidId=TVWK1tCDvfoE;" vertex="1" parent="1">
          <mxGeometry x="829" y="793" width="81" height="60" as="geometry" />
        </mxCell>
        <mxCell id="laFRASkE8Cc6EV5uPk7n-3" value="Login" style="html=1;overflow=block;blockSpacing=1;whiteSpace=wrap;shape=process;fontSize=13.5;fontColor=#3a414a;fontStyle=1;align=center;spacing=3.8;strokeColor=#3a414a;strokeOpacity=100;fillOpacity=0;rounded=1;absoluteArcSize=1;arcSize=12;fillColor=#FFE599;strokeWidth=0.8;lucidId=BGWKLJnAHEOR;" vertex="1" parent="1">
          <mxGeometry x="292" y="460" width="81" height="60" as="geometry" />
        </mxCell>
        <mxCell id="laFRASkE8Cc6EV5uPk7n-4" value="&lt;div style=&quot;display: flex; justify-content: center; text-align: center; align-items: baseline; line-height: 1.25; margin-top: -2px;&quot;&gt;&lt;font color=&quot;#3a414a&quot;&gt;&lt;span style=&quot;font-size: 13.5px;&quot;&gt;&lt;b&gt;Admin&lt;/b&gt;&lt;/span&gt;&lt;/font&gt;&lt;/div&gt;" style="html=1;overflow=block;blockSpacing=1;whiteSpace=wrap;fontSize=13;spacing=9;strokeColor=#3a414a;strokeOpacity=100;fillOpacity=0;rounded=1;absoluteArcSize=1;arcSize=12;fillColor=#FFE599;strokeWidth=0.8;lucidId=HEWKmNeVF82c;" vertex="1" parent="1">
          <mxGeometry x="157" y="460" width="81" height="60" as="geometry" />
        </mxCell>
        <mxCell id="6BTH09HC5pgecYK-MogY-40" value="" style="edgeStyle=orthogonalEdgeStyle;rounded=0;orthogonalLoop=1;jettySize=auto;html=1;" edge="1" parent="1" source="laFRASkE8Cc6EV5uPk7n-5" target="6BTH09HC5pgecYK-MogY-39">
          <mxGeometry relative="1" as="geometry" />
        </mxCell>
        <mxCell id="laFRASkE8Cc6EV5uPk7n-5" value="Login" style="html=1;overflow=block;blockSpacing=1;whiteSpace=wrap;shape=process;fontSize=13.5;fontColor=#3a414a;fontStyle=1;align=center;spacing=3.8;strokeColor=#3a414a;strokeOpacity=100;fillOpacity=0;rounded=1;absoluteArcSize=1;arcSize=12;fillColor=#FF36BC;strokeWidth=0.8;lucidId=BGWKLJnAHEOR;" vertex="1" parent="1">
          <mxGeometry x="292" y="460" width="81" height="60" as="geometry" />
        </mxCell>
        <mxCell id="laFRASkE8Cc6EV5uPk7n-6" value="&lt;div style=&quot;display: flex; justify-content: center; text-align: center; align-items: baseline; line-height: 1.25; margin-top: -2px;&quot;&gt;&lt;font color=&quot;#3a414a&quot;&gt;&lt;span style=&quot;font-size: 13.5px;&quot;&gt;&lt;b&gt;Admin&lt;/b&gt;&lt;/span&gt;&lt;/font&gt;&lt;/div&gt;" style="html=1;overflow=block;blockSpacing=1;whiteSpace=wrap;fontSize=13;spacing=9;strokeColor=#3a414a;strokeOpacity=100;fillOpacity=0;rounded=1;absoluteArcSize=1;arcSize=12;fillColor=#FF36BC;strokeWidth=0.8;lucidId=HEWKmNeVF82c;" vertex="1" parent="1">
          <mxGeometry x="157" y="460" width="81" height="60" as="geometry" />
        </mxCell>
        <mxCell id="PMWw6-VjNcPRThleCNM6-22" style="edgeStyle=orthogonalEdgeStyle;rounded=0;orthogonalLoop=1;jettySize=auto;html=1;entryX=0.5;entryY=0;entryDx=0;entryDy=0;" edge="1" parent="1" source="maXQ4XvdCrKpiElijYGz-6" target="6BTH09HC5pgecYK-MogY-39">
          <mxGeometry relative="1" as="geometry" />
        </mxCell>
        <mxCell id="maXQ4XvdCrKpiElijYGz-6" value="Stored Data" style="html=1;overflow=block;blockSpacing=1;whiteSpace=wrap;shape=cylinder3;boundedLbl=1;size=15;lid=0;direction=south;fontSize=13;fontColor=#3a414a;align=center;spacing=3.8;strokeColor=#3a414a;strokeOpacity=100;fillOpacity=100;rounded=1;absoluteArcSize=1;arcSize=12;fillColor=#FFFFFF;strokeWidth=0.8;lucidId=m1XKd9fk_-xt;" vertex="1" parent="1">
          <mxGeometry x="1377" y="242" width="120" height="90" as="geometry" />
        </mxCell>
        <mxCell id="6BTH09HC5pgecYK-MogY-6" value="Actor" style="shape=umlActor;verticalLabelPosition=bottom;verticalAlign=top;html=1;outlineConnect=0;fontStyle=0" vertex="1" parent="1">
          <mxGeometry x="178" y="396" width="30" height="60" as="geometry" />
        </mxCell>
        <mxCell id="6BTH09HC5pgecYK-MogY-42" value="" style="edgeStyle=orthogonalEdgeStyle;rounded=0;orthogonalLoop=1;jettySize=auto;html=1;" edge="1" parent="1" source="6BTH09HC5pgecYK-MogY-39" target="6BTH09HC5pgecYK-MogY-41">
          <mxGeometry relative="1" as="geometry" />
        </mxCell>
        <mxCell id="6BTH09HC5pgecYK-MogY-48" style="edgeStyle=orthogonalEdgeStyle;rounded=0;orthogonalLoop=1;jettySize=auto;html=1;entryX=0;entryY=0.5;entryDx=0;entryDy=0;" edge="1" parent="1" source="6BTH09HC5pgecYK-MogY-39" target="6BTH09HC5pgecYK-MogY-46">
          <mxGeometry relative="1" as="geometry">
            <Array as="points">
              <mxPoint x="485" y="650" />
            </Array>
          </mxGeometry>
        </mxCell>
        <mxCell id="6BTH09HC5pgecYK-MogY-49" style="edgeStyle=orthogonalEdgeStyle;rounded=0;orthogonalLoop=1;jettySize=auto;html=1;entryX=0;entryY=0.5;entryDx=0;entryDy=0;" edge="1" parent="1" source="6BTH09HC5pgecYK-MogY-39" target="6BTH09HC5pgecYK-MogY-44">
          <mxGeometry relative="1" as="geometry">
            <Array as="points">
              <mxPoint x="485" y="330" />
            </Array>
          </mxGeometry>
        </mxCell>
        <mxCell id="PMWw6-VjNcPRThleCNM6-1" style="edgeStyle=orthogonalEdgeStyle;rounded=0;orthogonalLoop=1;jettySize=auto;html=1;entryX=0.5;entryY=0;entryDx=0;entryDy=0;" edge="1" parent="1" source="6BTH09HC5pgecYK-MogY-39" target="jZZswJj1VfevEvX6RnNG-50">
          <mxGeometry relative="1" as="geometry" />
        </mxCell>
        <mxCell id="6BTH09HC5pgecYK-MogY-39" value="&lt;font style=&quot;font-size: 14px;&quot;&gt;&lt;b&gt;Dashboard&lt;/b&gt;&lt;/font&gt;" style="rounded=1;whiteSpace=wrap;html=1;" vertex="1" parent="1">
          <mxGeometry x="425" y="440" width="120" height="100" as="geometry" />
        </mxCell>
        <mxCell id="6BTH09HC5pgecYK-MogY-45" value="" style="edgeStyle=orthogonalEdgeStyle;rounded=0;orthogonalLoop=1;jettySize=auto;html=1;" edge="1" parent="1" source="6BTH09HC5pgecYK-MogY-41" target="6BTH09HC5pgecYK-MogY-44">
          <mxGeometry relative="1" as="geometry" />
        </mxCell>
        <mxCell id="6BTH09HC5pgecYK-MogY-47" value="" style="edgeStyle=orthogonalEdgeStyle;rounded=0;orthogonalLoop=1;jettySize=auto;html=1;" edge="1" parent="1" source="6BTH09HC5pgecYK-MogY-41" target="6BTH09HC5pgecYK-MogY-46">
          <mxGeometry relative="1" as="geometry" />
        </mxCell>
        <mxCell id="6BTH09HC5pgecYK-MogY-41" value="Display&amp;nbsp;&amp;nbsp;" style="rhombus;whiteSpace=wrap;html=1;rounded=1;" vertex="1" parent="1">
          <mxGeometry x="645" y="450" width="80" height="80" as="geometry" />
        </mxCell>
        <mxCell id="6BTH09HC5pgecYK-MogY-66" style="edgeStyle=orthogonalEdgeStyle;rounded=0;orthogonalLoop=1;jettySize=auto;html=1;entryX=0.5;entryY=0;entryDx=0;entryDy=0;" edge="1" parent="1" source="6BTH09HC5pgecYK-MogY-44" target="6BTH09HC5pgecYK-MogY-50">
          <mxGeometry relative="1" as="geometry" />
        </mxCell>
        <mxCell id="6BTH09HC5pgecYK-MogY-44" value="Manage Requests" style="rhombus;whiteSpace=wrap;html=1;rounded=1;" vertex="1" parent="1">
          <mxGeometry x="645" y="290" width="80" height="80" as="geometry" />
        </mxCell>
        <mxCell id="6BTH09HC5pgecYK-MogY-46" value="Track &lt;br&gt;Actions" style="rhombus;whiteSpace=wrap;html=1;rounded=1;" vertex="1" parent="1">
          <mxGeometry x="645" y="610" width="80" height="80" as="geometry" />
        </mxCell>
        <mxCell id="6BTH09HC5pgecYK-MogY-64" style="edgeStyle=orthogonalEdgeStyle;rounded=0;orthogonalLoop=1;jettySize=auto;html=1;exitX=1;exitY=0.5;exitDx=0;exitDy=0;" edge="1" parent="1" source="6BTH09HC5pgecYK-MogY-41" target="6BTH09HC5pgecYK-MogY-50">
          <mxGeometry relative="1" as="geometry">
            <Array as="points">
              <mxPoint x="898" y="490" />
            </Array>
          </mxGeometry>
        </mxCell>
        <mxCell id="6BTH09HC5pgecYK-MogY-68" style="edgeStyle=orthogonalEdgeStyle;rounded=0;orthogonalLoop=1;jettySize=auto;html=1;exitX=1;exitY=0.5;exitDx=0;exitDy=0;" edge="1" parent="1" source="6BTH09HC5pgecYK-MogY-46" target="6BTH09HC5pgecYK-MogY-50">
          <mxGeometry relative="1" as="geometry" />
        </mxCell>
        <mxCell id="PMWw6-VjNcPRThleCNM6-6" style="edgeStyle=orthogonalEdgeStyle;rounded=0;orthogonalLoop=1;jettySize=auto;html=1;entryX=0;entryY=0.5;entryDx=0;entryDy=0;" edge="1" parent="1" source="6BTH09HC5pgecYK-MogY-50" target="6BTH09HC5pgecYK-MogY-56">
          <mxGeometry relative="1" as="geometry" />
        </mxCell>
        <mxCell id="6BTH09HC5pgecYK-MogY-50" value="&lt;b&gt;&lt;font style=&quot;font-size: 14px;&quot;&gt;Lists&lt;/font&gt;&lt;/b&gt;" style="swimlane;fontStyle=0;childLayout=stackLayout;horizontal=1;startSize=30;horizontalStack=0;resizeParent=1;resizeParentMax=0;resizeLast=0;collapsible=1;marginBottom=0;whiteSpace=wrap;html=1;" vertex="1" parent="1">
          <mxGeometry x="835" y="428" width="140" height="120" as="geometry" />
        </mxCell>
        <mxCell id="6BTH09HC5pgecYK-MogY-51" value="- Registered Customers" style="text;strokeColor=#000000;fillColor=none;align=left;verticalAlign=middle;spacingLeft=4;spacingRight=4;overflow=hidden;points=[[0,0.5],[1,0.5]];portConstraint=eastwest;rotatable=0;whiteSpace=wrap;html=1;" vertex="1" parent="6BTH09HC5pgecYK-MogY-50">
          <mxGeometry y="30" width="140" height="30" as="geometry" />
        </mxCell>
        <mxCell id="6BTH09HC5pgecYK-MogY-52" value="- Registered Teachers" style="text;strokeColor=#000000;fillColor=none;align=left;verticalAlign=middle;spacingLeft=4;spacingRight=4;overflow=hidden;points=[[0,0.5],[1,0.5]];portConstraint=eastwest;rotatable=0;whiteSpace=wrap;html=1;" vertex="1" parent="6BTH09HC5pgecYK-MogY-50">
          <mxGeometry y="60" width="140" height="30" as="geometry" />
        </mxCell>
        <mxCell id="6BTH09HC5pgecYK-MogY-53" value="- Track Records" style="text;strokeColor=none;fillColor=none;align=left;verticalAlign=middle;spacingLeft=4;spacingRight=4;overflow=hidden;points=[[0,0.5],[1,0.5]];portConstraint=eastwest;rotatable=0;whiteSpace=wrap;html=1;" vertex="1" parent="6BTH09HC5pgecYK-MogY-50">
          <mxGeometry y="90" width="140" height="30" as="geometry" />
        </mxCell>
        <mxCell id="PMWw6-VjNcPRThleCNM6-3" value="" style="edgeStyle=orthogonalEdgeStyle;rounded=0;orthogonalLoop=1;jettySize=auto;html=1;" edge="1" parent="1" source="6BTH09HC5pgecYK-MogY-56" target="PMWw6-VjNcPRThleCNM6-2">
          <mxGeometry relative="1" as="geometry" />
        </mxCell>
        <mxCell id="PMWw6-VjNcPRThleCNM6-17" style="edgeStyle=orthogonalEdgeStyle;rounded=0;orthogonalLoop=1;jettySize=auto;html=1;entryX=0.5;entryY=0;entryDx=0;entryDy=0;" edge="1" parent="1" source="6BTH09HC5pgecYK-MogY-56" target="PMWw6-VjNcPRThleCNM6-14">
          <mxGeometry relative="1" as="geometry" />
        </mxCell>
        <mxCell id="6BTH09HC5pgecYK-MogY-56" value="&lt;span style=&quot;font-size: 10px;&quot;&gt;Approve&lt;/span&gt;" style="rhombus;whiteSpace=wrap;html=1;fontStyle=0;startSize=30;" vertex="1" parent="1">
          <mxGeometry x="1078" y="292" width="80" height="80" as="geometry" />
        </mxCell>
        <mxCell id="PMWw6-VjNcPRThleCNM6-5" value="" style="edgeStyle=orthogonalEdgeStyle;rounded=0;orthogonalLoop=1;jettySize=auto;html=1;" edge="1" parent="1" source="PMWw6-VjNcPRThleCNM6-2" target="PMWw6-VjNcPRThleCNM6-4">
          <mxGeometry relative="1" as="geometry" />
        </mxCell>
        <mxCell id="PMWw6-VjNcPRThleCNM6-15" value="" style="edgeStyle=orthogonalEdgeStyle;rounded=0;orthogonalLoop=1;jettySize=auto;html=1;" edge="1" parent="1" source="PMWw6-VjNcPRThleCNM6-2" target="PMWw6-VjNcPRThleCNM6-14">
          <mxGeometry relative="1" as="geometry" />
        </mxCell>
        <mxCell id="PMWw6-VjNcPRThleCNM6-2" value="&lt;span style=&quot;font-size: 10px;&quot;&gt;Update&lt;/span&gt;" style="rhombus;whiteSpace=wrap;html=1;fontStyle=0;startSize=30;" vertex="1" parent="1">
          <mxGeometry x="1078" y="452" width="80" height="80" as="geometry" />
        </mxCell>
        <mxCell id="PMWw6-VjNcPRThleCNM6-18" style="edgeStyle=orthogonalEdgeStyle;rounded=0;orthogonalLoop=1;jettySize=auto;html=1;entryX=0.5;entryY=1;entryDx=0;entryDy=0;" edge="1" parent="1" source="PMWw6-VjNcPRThleCNM6-4" target="PMWw6-VjNcPRThleCNM6-14">
          <mxGeometry relative="1" as="geometry" />
        </mxCell>
        <mxCell id="PMWw6-VjNcPRThleCNM6-4" value="&lt;span style=&quot;font-size: 10px;&quot;&gt;Delete&lt;/span&gt;" style="rhombus;whiteSpace=wrap;html=1;fontStyle=0;startSize=30;" vertex="1" parent="1">
          <mxGeometry x="1078" y="612" width="80" height="80" as="geometry" />
        </mxCell>
        <mxCell id="PMWw6-VjNcPRThleCNM6-7" style="edgeStyle=orthogonalEdgeStyle;rounded=0;orthogonalLoop=1;jettySize=auto;html=1;entryX=0;entryY=0.5;entryDx=0;entryDy=0;" edge="1" parent="1" source="6BTH09HC5pgecYK-MogY-52" target="PMWw6-VjNcPRThleCNM6-2">
          <mxGeometry relative="1" as="geometry">
            <Array as="points">
              <mxPoint x="1027" y="489" />
              <mxPoint x="1027" y="492" />
            </Array>
          </mxGeometry>
        </mxCell>
        <mxCell id="PMWw6-VjNcPRThleCNM6-8" style="edgeStyle=orthogonalEdgeStyle;rounded=0;orthogonalLoop=1;jettySize=auto;html=1;entryX=0;entryY=0.5;entryDx=0;entryDy=0;" edge="1" parent="1" source="6BTH09HC5pgecYK-MogY-52" target="PMWw6-VjNcPRThleCNM6-4">
          <mxGeometry relative="1" as="geometry">
            <Array as="points">
              <mxPoint x="1027" y="488" />
              <mxPoint x="1027" y="652" />
            </Array>
          </mxGeometry>
        </mxCell>
        <mxCell id="PMWw6-VjNcPRThleCNM6-19" style="edgeStyle=orthogonalEdgeStyle;rounded=0;orthogonalLoop=1;jettySize=auto;html=1;entryX=0;entryY=0.5;entryDx=0;entryDy=0;entryPerimeter=0;" edge="1" parent="1" source="PMWw6-VjNcPRThleCNM6-14" target="jZZswJj1VfevEvX6RnNG-34">
          <mxGeometry relative="1" as="geometry" />
        </mxCell>
        <mxCell id="PMWw6-VjNcPRThleCNM6-14" value="Submit" style="rhombus;whiteSpace=wrap;html=1;fontStyle=0;startSize=30;" vertex="1" parent="1">
          <mxGeometry x="1238" y="452" width="80" height="80" as="geometry" />
        </mxCell>
      </root>
    </mxGraphModel>
  </diagram>
</mxfile>
